<svg width="28" height="34" viewBox="0 0 28 34" fill="none" xmlns="http://www.w3.org/2000/svg">
  <path d="M13.9999 0C21.459 0 27.7664 3.07961 27.9798 6.76612C27.7664 10.4523 21.459 13.5327 13.9999 13.5327C6.54063 13.5327 0.23379 10.453 0.0200195 6.76612C0.23379 3.07961 6.54063 0 13.9999 0Z" fill="#2F374A"/>
  <path d="M28 26.9021C28 30.6732 21.5892 33.8592 14 33.8592C6.41076 33.8592 0 30.6732 0 26.9021V23.5753C2.39684 26.4532 7.69786 28.4106 14 28.4106C20.3021 28.4106 25.603 26.4527 28 23.5753V26.9021Z" fill="#2F374A"/>
  <path d="M28 20.0794C28 23.8504 21.5892 27.0365 14 27.0365C6.41076 27.0365 0 23.8504 0 20.0794V16.6143C2.39684 19.4915 7.69786 21.4483 14 21.4483C20.3021 21.4483 25.603 19.4903 28 16.6143V20.0794Z" fill="#2F374A"/>
  <path d="M28 13.1169C28 16.8881 21.5892 20.0739 14 20.0739C6.41076 20.0739 0 16.888 0 13.1169V10.0723C2.39684 12.9502 7.69786 14.9062 14 14.9062C20.3021 14.9062 25.603 12.9495 28 10.0723V13.1169Z" fill="#2F374A"/>
</svg>
