<svg width="28" height="38" viewBox="0 0 28 38" fill="none" xmlns="http://www.w3.org/2000/svg">
  <path d="M8.3125 25.618H5.6875V21.3483H8.3125V25.618Z" fill="#2F374A"/>
  <path d="M11.8125 25.618H9.1875V21.3483H11.8125V25.618Z" fill="#2F374A"/>
  <path d="M15.3125 25.618H12.6875V21.3483H15.3125V25.618Z" fill="#2F374A"/>
  <path d="M18.8125 25.618H16.1875V21.3483H18.8125V25.618Z" fill="#2F374A"/>
  <path d="M22.3125 25.618H19.6875V21.3483H22.3125V25.618Z" fill="#2F374A"/>
  <path fill-rule="evenodd" clip-rule="evenodd" d="M24.5 0C26.433 0 28 1.52927 28 3.41573V27.1124C28 28.7799 26.7755 30.168 25.1562 30.4678V33.0899C25.1562 33.5615 24.7645 33.9438 24.2812 33.9438H23.625V37.1461C23.625 37.6177 23.2332 38 22.75 38H20.5625C20.0793 38 19.6875 37.6177 19.6875 37.1461V33.9438H18.5938V37.1461C18.5938 37.6177 18.202 38 17.7188 38H15.5312C15.048 38 14.6562 37.6177 14.6562 37.1461V33.9438H13.5625V37.1461C13.5625 37.6177 13.1707 38 12.6875 38H10.5C10.0168 38 9.625 37.6177 9.625 37.1461V33.9438H8.53125V37.1461C8.53125 37.6177 8.1395 38 7.65625 38H5.46875C4.9855 38 4.59375 37.6177 4.59375 37.1461V33.9438H3.71875C3.2355 33.9438 2.84375 33.5615 2.84375 33.0899V30.4678C1.22446 30.168 0 28.7799 0 27.1124V3.41573C0 1.52927 1.567 0 3.5 0H24.5ZM5.46875 20.4944C4.9855 20.4944 4.59375 20.8767 4.59375 21.3483V25.618C4.59375 26.0896 4.9855 26.4719 5.46875 26.4719H22.5312C23.0145 26.4719 23.4062 26.0896 23.4062 25.618V21.3483C23.4062 20.8767 23.0145 20.4944 22.5312 20.4944H5.46875ZM3.71875 3.41573C3.2355 3.41573 2.84375 3.79805 2.84375 4.26966V9.39326C2.84375 9.86487 3.2355 10.2472 3.71875 10.2472H24.2812C24.7645 10.2472 25.1562 9.86487 25.1562 9.39326V4.26966C25.1562 3.79805 24.7645 3.41573 24.2812 3.41573H3.71875Z" fill="#2F374A"/>
</svg>
