<svg width="28" height="34" viewBox="0 0 28 34" fill="none" xmlns="http://www.w3.org/2000/svg">
  <path d="M17.9228 18.0775C18.1176 18.0776 18.2757 18.2383 18.2757 18.4366V23.7042C18.2757 23.9025 18.1176 24.0633 17.9228 24.0634H12.7463C12.5514 24.0634 12.3934 23.9026 12.3934 23.7042V18.4366C12.3934 18.2383 12.5514 18.0775 12.7463 18.0775H17.9228Z" fill="#2F374A"/>
  <path d="M23.7594 5.44718C23.8919 5.44718 24.0289 5.4481 24.1622 5.4701C24.2993 5.49274 24.3758 5.52953 24.412 5.55942C24.4267 5.57157 24.4615 5.59821 24.4692 5.71772C24.4774 5.84494 24.4516 6.06713 24.3187 6.42036L24.2548 6.58006C23.7063 7.88182 22.7561 8.08098 22.3088 8.08099H13.2946C13.1576 8.08098 13.0575 8.07015 12.9871 8.05597C12.9825 8.05503 12.9781 8.05363 12.9738 8.05269C13.0061 7.98241 13.0557 7.90631 13.1096 7.83945L15.1574 5.79348L15.2217 5.73338C15.504 5.49017 15.8196 5.45358 16.0124 5.44812L16.0921 5.44718H23.7594Z" fill="#2F374A"/>
  <path fill-rule="evenodd" clip-rule="evenodd" d="M25.6471 1.67606C26.9466 1.67606 28 2.74805 28 4.07042V31.6056C28 32.928 26.9466 34 25.6471 34H5.17647C3.87698 34 2.82353 32.928 2.82353 31.6056V14.4859C2.82353 7.41123 8.45947 1.67606 15.4118 1.67606H25.6471ZM22.1528 14.2259C21.9691 14.0389 21.6711 14.039 21.4874 14.2259L18.6788 17.0837C18.4558 16.9544 18.1978 16.8803 17.9228 16.8803H12.7463C12.4955 16.8803 12.2587 16.9419 12.0499 17.0507L9.2739 14.2259C9.09014 14.0389 8.79224 14.039 8.60846 14.2259C8.42468 14.4129 8.42468 14.716 8.60846 14.9031L11.3844 17.7279C11.2774 17.9405 11.2169 18.1814 11.2169 18.4366V23.7042C11.2169 23.9841 11.2897 24.2466 11.4168 24.4735L8.60846 27.3316C8.42471 27.5186 8.42469 27.8217 8.60846 28.0087C8.79223 28.1956 9.09014 28.1957 9.2739 28.0087L12.1121 25.1203C12.3054 25.21 12.5201 25.2606 12.7463 25.2606H17.9228C18.1735 25.2605 18.41 25.1985 18.6188 25.0896L21.4874 28.0087C21.6711 28.1956 21.9691 28.1957 22.1528 28.0087C22.3365 27.8217 22.3365 27.5185 22.1528 27.3316L19.2842 24.4125C19.3912 24.2 19.4522 23.9594 19.4522 23.7042V18.4366C19.4522 18.2064 19.4025 17.9879 19.3143 17.7913L22.1528 14.9031C22.3365 14.7161 22.3365 14.4129 22.1528 14.2259ZM16.0921 4.25C15.8639 4.25 15.0289 4.24359 14.333 4.93908L12.2608 7.01007L12.2417 7.02901L12.2245 7.04982C12.1114 7.18548 11.9919 7.36035 11.9035 7.55558C11.8188 7.74269 11.7372 8.00443 11.7734 8.29026C11.8145 8.61392 11.9978 8.89242 12.3017 9.06586C12.5745 9.22152 12.9166 9.27816 13.2946 9.27817H22.3088C23.1049 9.27816 24.5585 8.89735 25.3362 7.05169L25.3771 6.95208C25.5749 6.45732 25.6678 6.02182 25.6432 5.63939C25.6152 5.20579 25.4364 4.8635 25.1533 4.62973C24.8916 4.41376 24.5858 4.32741 24.3506 4.28858C24.1117 4.24914 23.8859 4.25 23.7594 4.25H16.0921Z" fill="#2F374A"/>
  <path d="M8.87937 2.30341C6.15194 3.36303 4.03349 5.6761 3.20404 8.55074L2.49563 9.27186L0 6.73228L6.61581 0L8.87937 2.30341Z" fill="#2F374A"/>
</svg>
