<svg width="269" height="118" viewBox="0 0 269 118" fill="none" xmlns="http://www.w3.org/2000/svg">
<path d="M0.457764 58.8799C0.457764 58.8799 60.5056 117.676 134.593 117.676C208.68 117.676 268.728 58.8799 268.728 58.8799C268.728 58.8799 208.68 0.0839844 134.593 0.0839844C60.5056 0.0839844 0.457764 58.8799 0.457764 58.8799Z" fill="#007686"/>
<path d="M47.4053 54.3642C54.4251 54.9454 58.1361 58.5224 58.1361 64.6479C58.1361 71.7571 52.4578 76.1388 43.2919 76.1388C38.2841 76.1388 33.0529 75.5128 28.4923 71.0417L28.0452 70.5945L33.4553 65.1844L33.9024 65.6315C36.138 67.9118 39.1784 69.0296 43.2919 69.0296C44.9015 69.0296 50.1328 68.7166 50.1328 64.9161C50.1328 63.4854 49.6856 61.7416 46.1087 61.4734L40.6539 60.9815C33.5894 60.4003 29.9678 57.0022 29.9678 50.8767C29.9678 44.2593 35.3779 39.7882 43.426 39.7882C48.6573 39.7882 52.726 40.7271 55.8111 42.6944L56.303 43.0074L53.1731 49.2223L52.5919 48.7305C50.3116 46.8973 44.9462 46.7632 43.3813 46.7632C39.8938 46.7632 37.7923 48.194 37.7923 50.5637C37.7923 51.9051 38.2841 53.5147 41.9505 53.8724L47.4053 54.3642ZM76.8256 63.083L69.1352 40.2353H60.5506L72.6675 73.5902L70.879 78.7321C69.94 81.3254 69.0458 81.996 66.542 81.996H64.1722V89.4629H67.5256C70.7448 89.4629 73.1593 88.5687 74.9477 86.7802C76.0655 85.6624 76.8704 84.2316 77.5857 82.2643L92.9666 40.2353H84.3372L76.8256 63.083ZM117.156 65.721C115.099 68.0013 113.534 68.7614 111.075 68.7614C108.66 68.7614 106.604 67.7777 105.218 65.9445C103.876 64.2455 103.34 61.9205 103.34 57.9411C103.34 53.9618 103.876 51.7262 105.218 49.9824C106.604 48.1493 108.616 47.1656 111.075 47.1656C113.534 47.1656 115.099 47.9257 117.156 50.206L117.603 50.6978L123.192 45.243L122.789 44.7959C119.481 41.2637 116.083 39.7882 111.12 39.7882C107.408 39.7882 95.2916 41.0848 95.2916 57.8964C95.2916 71.3099 103.474 76.0941 111.12 76.0941C115.993 76.0941 119.481 74.5739 122.789 71.0417L123.192 70.5945L117.603 65.1844L117.156 65.721ZM139.02 30.354H130.927V40.7718H127.037V47.2997H130.927V65.5868C130.927 70.6392 134.012 75.7811 140.853 75.7811H145.548V68.6719H142.105C140.003 68.6719 138.975 67.5541 138.975 65.2739V47.3445H145.548V40.8165H138.975V30.354H139.02ZM166.607 39.8329C172.062 39.8329 175.46 42.1579 177.293 44.0805C181.004 47.9704 181.54 53.0675 181.54 57.9858C181.54 62.9488 181.049 68.046 177.338 71.9359C175.46 73.8585 172.106 76.1835 166.651 76.1835C162.404 76.1835 158.693 74.708 156.01 71.9359C152.299 68.046 151.807 62.9488 151.807 57.9858C151.807 53.0675 152.299 47.9704 156.01 44.0805C158.648 41.3084 162.314 39.8329 166.607 39.8329ZM173.403 57.9411C173.403 53.8724 173.045 50.7873 171.212 48.9541C170.05 47.7916 168.44 47.1656 166.607 47.1656C164.774 47.1656 163.209 47.7469 162.046 48.9541C160.213 50.7873 159.855 53.8724 159.855 57.9411C159.855 62.0099 160.213 65.095 162.046 66.8835C163.253 68.0907 164.818 68.7166 166.607 68.7166C168.44 68.7166 170.05 68.0907 171.212 66.8835C173.045 65.095 173.403 62.0099 173.403 57.9411ZM236.268 43.0968C234.121 40.9954 230.768 39.7882 227.146 39.7882C222.765 39.7882 219.232 41.3084 216.416 44.3935C214.135 41.3531 210.782 39.7882 206.624 39.7882C203.404 39.7882 200.364 40.8613 198.084 42.8286V40.1906H190.08V75.7364H198.218V54.2301C198.218 49.8483 200.632 47.2103 204.701 47.2103C208.725 47.2103 211.005 49.7589 211.005 54.2301V75.7364H219.143V53.8724C219.143 48.9541 222.631 47.1656 225.626 47.1656C229.606 47.1656 231.931 49.7142 231.931 54.1853V75.6917H240.068V53.157C240.113 48.9094 238.861 45.6007 236.268 43.0968Z" fill="white"/>
</svg>
