<svg width="23" height="19" viewBox="0 0 23 19" fill="none" xmlns="http://www.w3.org/2000/svg">
<path fill-rule="evenodd" clip-rule="evenodd" d="M1.4375 16.8906V1.4375H21.5625V16.8906H1.4375ZM0 1.07812C0 0.482693 0.482693 0 1.07812 0H21.9219C22.5173 0 23 0.482693 23 1.07812V17.25C23 17.8454 22.5173 18.3281 21.9219 18.3281H1.07812C0.482693 18.3281 0 17.8454 0 17.25V1.07812ZM7.54688 5.21094C7.54688 6.50104 6.50104 7.54688 5.21094 7.54688C3.92083 7.54688 2.875 6.50104 2.875 5.21094C2.875 3.92083 3.92083 2.875 5.21094 2.875C6.50104 2.875 7.54688 3.92083 7.54688 5.21094ZM2.875 13.1172V15.4531H20.125V9.88281L15.0938 4.85156L8.80469 11.1406L6.82812 9.16406L2.875 13.1172Z" fill="#2F374A"/>
</svg>
