<svg width="20" height="30" viewBox="0 0 20 30" fill="none" xmlns="http://www.w3.org/2000/svg">
<path fill-rule="evenodd" clip-rule="evenodd" d="M16.562 11.0395V17.3153L10.1153 20.9487L3.6958 17.2682V10.9466L10.1195 7.27576L16.562 11.0395ZM10.1147 8.2072L4.83594 11.2238L10.0564 14.3347L15.3835 11.2852L10.1147 8.2072ZM9.63538 15.0232L4.52914 11.9803L4.52914 16.8165L9.63538 19.744V15.0232ZM10.4687 15.0278L15.7287 12.0168V16.8596L10.4687 19.8241V15.0278Z" fill="#2F374A"/>
<path fill-rule="evenodd" clip-rule="evenodd" d="M19.1667 23.7209H0.833333V0.797342H12.2916V7.57476H19.1667V23.7209ZM18.5252 6.77742L15.7687 4.03343L13.1249 1.50694V6.77742H18.5252ZM13.1249 0.380022L16.3636 3.47503L20 7.09486V24.5183H0V0H12.7273L13.0402 0.299011H13.1249V0.380022Z" fill="#2F374A"/>
<path fill-rule="evenodd" clip-rule="evenodd" d="M12.2918 21.7276H7.60431V25.4153L5.72974 25.4153L10.0006 30L14.2714 25.4153L12.2918 25.4153V21.7276Z" fill="#2F374A"/>
</svg>
