<svg width="28" height="16" viewBox="0 0 28 16" fill="none" xmlns="http://www.w3.org/2000/svg">
<path fill-rule="evenodd" clip-rule="evenodd" d="M6.6189 4.53279C4.59354 5.76915 3.21971 7.26518 2.66689 8.17404L1.05029 7.32406C1.76655 6.1465 3.3596 4.45677 5.5996 3.0894C7.85423 1.7131 10.8245 0.626898 14.2927 0.756618C21.1907 1.01463 25.0689 5.28736 26.4178 7.29098L24.8436 8.20713C23.6544 6.44078 20.2461 2.70739 14.218 2.48192C11.2232 2.3699 8.62963 3.30538 6.6189 4.53279Z" fill="#2F374A"/>
<path fill-rule="evenodd" clip-rule="evenodd" d="M5.21072 2.45259C7.56278 1.01682 10.6763 -0.125248 14.3205 0.0110535C21.5446 0.281257 25.6127 4.75934 27.0366 6.87431L27.4815 7.53514L24.6148 9.20347L24.2245 8.62383C23.111 6.96982 19.8928 3.44082 14.19 3.22752C11.371 3.12208 8.92068 4.00178 7.00751 5.16964C5.06665 6.35441 3.78556 7.77042 3.3042 8.56179L2.93995 9.16064L0 7.61487L0.412716 6.93635C1.20046 5.64126 2.88626 3.87152 5.21072 2.45259ZM14.2647 1.50222C10.9725 1.37908 8.14541 2.40942 5.9882 3.72625C4.24072 4.79297 2.92387 6.05288 2.14438 7.05645L2.4296 7.20642C3.18224 6.22139 4.48647 4.96031 6.23003 3.89598C8.33831 2.60902 11.0751 1.61776 14.2458 1.73636C20.0128 1.95206 23.51 5.2166 25.0523 7.22235L25.3287 7.06149C23.7358 5.01937 20.1609 1.72275 14.2647 1.50222Z" fill="#2F374A"/>
<path fill-rule="evenodd" clip-rule="evenodd" d="M9.53969 9.30817C8.32788 9.94963 7.52008 10.7201 7.20994 11.1622L5.52661 10.4124C6.00405 9.73177 7.03745 8.78782 8.47265 8.02811C9.92279 7.2605 11.8465 6.64778 14.1008 6.72089C18.5683 6.8658 21.0727 9.26489 21.9409 10.3831L20.3009 11.1916C19.5939 10.281 17.5765 8.37163 14.0223 8.25636C12.2657 8.19938 10.7366 8.67461 9.53969 9.30817Z" fill="#2F374A"/>
<path fill-rule="evenodd" clip-rule="evenodd" d="M8.12391 7.36859C9.66824 6.55112 11.7198 5.89705 14.1253 5.97507C18.8749 6.12913 21.5681 8.6858 22.5305 9.92538L23.0914 10.6477L20.0852 12.1298L19.7119 11.649C19.1003 10.8613 17.272 9.10813 13.9985 9.00196C12.3929 8.94988 10.9915 9.38389 9.88906 9.96748C8.75637 10.5671 8.04879 11.2659 7.82107 11.5906L7.46812 12.0937L4.396 10.7253L4.9161 9.98386C5.47599 9.18567 6.60964 8.17015 8.12391 7.36859ZM14.0769 7.4665C11.9739 7.39829 10.178 7.96967 8.82202 8.68742C7.94797 9.15009 7.24963 9.67695 6.75783 10.1438L7.00275 10.2529C7.48479 9.75107 8.23229 9.1561 9.19095 8.64864C10.4822 7.96512 12.1391 7.44866 14.0468 7.51054C17.3648 7.61815 19.4638 9.17889 20.489 10.267L20.7293 10.1486C19.6148 9.05714 17.4548 7.57606 14.0769 7.4665Z" fill="#2F374A"/>
<path fill-rule="evenodd" clip-rule="evenodd" d="M12.5818 13.5314C12.2101 13.7665 11.9861 14.0379 11.9269 14.1386L10.0034 13.204C10.2411 12.7991 10.7111 12.2985 11.3371 11.9026C11.9788 11.4968 12.8601 11.1542 13.9114 11.1949C15.9619 11.2744 17.0871 12.5858 17.4645 13.1665L15.5873 14.1761C15.371 13.8432 14.7917 13.2146 13.8186 13.1769C13.358 13.159 12.9379 13.3063 12.5818 13.5314Z" fill="#2F374A"/>
<path fill-rule="evenodd" clip-rule="evenodd" d="M10.938 11.2719C11.6772 10.8045 12.7057 10.4015 13.9399 10.4493C16.3293 10.5419 17.6437 12.0736 18.0897 12.7598L18.5314 13.4396L15.3355 15.1583L14.9613 14.5825C14.8177 14.3615 14.4288 13.9471 13.7893 13.9223C13.5108 13.9115 13.2378 13.999 12.9802 14.1619C12.8459 14.2469 12.7395 14.3377 12.6642 14.413C12.5957 14.4815 12.567 14.5227 12.5665 14.5224C12.5664 14.5223 12.5669 14.5215 12.5679 14.5198L12.2207 15.1109L8.95093 13.5222L9.35964 12.8261C9.66605 12.3043 10.2265 11.7218 10.938 11.2719ZM13.8821 11.9404C13.0138 11.9067 12.2796 12.189 11.7355 12.5331C11.5278 12.6645 11.3439 12.8072 11.1866 12.9494L11.7516 13.224C11.876 13.1141 12.0203 13.0034 12.1827 12.9007C12.6372 12.6133 13.2045 12.4063 13.8471 12.4312C14.7178 12.4649 15.35 12.8504 15.7605 13.2354L16.3042 12.943C15.8079 12.477 15.0149 11.9843 13.8821 11.9404Z" fill="#2F374A"/>
</svg>

