<svg width="28" height="27" viewBox="0 0 28 27" fill="none" xmlns="http://www.w3.org/2000/svg">
<path fill-rule="evenodd" clip-rule="evenodd" d="M1.97543 5.55413C0.379564 7.05811 0.119493 9.45116 1.24071 11.2428L1.24386 11.2398L2.97622 13.0567L5.33414 10.8005L3.61569 8.99826L9.74941 3.20143L14.2893 8.03643L14.2771 8.04796L16.5178 10.4561C16.5237 10.4469 16.5296 10.4378 16.5355 10.4286L16.5381 10.4315C17.1161 9.52581 17.3417 8.45513 17.2089 7.4196C17.137 6.85402 16.9583 6.29873 16.6715 5.78634L16.6699 5.7879C16.494 5.47451 16.2778 5.17726 16.0208 4.90362L12.8431 1.51925C12.6316 1.29402 12.4024 1.09534 12.1599 0.923365L12.1616 0.921761C10.446 -0.295309 8.05658 -0.176879 6.46613 1.322L1.97543 5.55413ZM13.6178 13.3554L11.2977 10.862L5.83461 16.0221C7.5294 17.0978 9.79772 16.9386 11.3302 15.5012L13.6178 13.3554Z" fill="#F8C62C"/>
<path fill-rule="evenodd" clip-rule="evenodd" d="M6.10141 25.2672C7.60272 26.8658 9.9919 27.1259 11.7805 26.0019L11.5622 25.7702L11.7881 26.0071L13.5998 24.2736L11.3389 21.9024L9.54037 23.6233L3.75308 17.4782L8.5781 12.9318L8.58928 12.9437L10.9934 10.6989C10.9844 10.693 10.9754 10.6872 10.9664 10.6814L10.9705 10.6776C9.93182 10.0125 8.67568 9.8133 7.50507 10.0893C7.09965 10.1842 6.70439 10.336 6.33186 10.5453L6.33331 10.5468C6.02088 10.7229 5.72453 10.9394 5.45168 11.1965L2.07465 14.3785C1.84954 14.5906 1.651 14.8204 1.47917 15.0637L1.47715 15.0616C0.26144 16.7802 0.379166 19.1741 1.87537 20.7672L6.10141 25.2672ZM13.8878 13.6038L11.3984 15.9283L16.5498 21.4014C17.624 19.7035 17.4649 17.4306 16.0295 15.895L13.8878 13.6038Z" fill="#2F374A"/>
<path fill-rule="evenodd" clip-rule="evenodd" d="M25.8239 21.182C27.4198 19.6781 27.6798 17.285 26.5586 15.4934L26.5557 15.4961L24.8238 13.6797L22.4663 15.9355L24.1843 17.7373L18.0509 23.5337L13.5112 18.6989L13.5234 18.6873L11.2825 16.279C11.2766 16.2882 11.2707 16.2973 11.2648 16.3065L11.2625 16.304C10.8188 16.9992 10.5827 17.7917 10.5571 18.5908C10.5299 19.4014 10.7192 20.2192 11.1281 20.9498L11.1306 20.9474C11.3065 21.2609 11.5228 21.5582 11.7798 21.8319L14.9575 25.2162C15.1689 25.4414 15.3979 25.64 15.6404 25.8119L15.6377 25.8144C17.3533 27.0315 19.7427 26.9131 21.3332 25.4142L25.8239 21.182ZM14.1828 13.3799L16.5028 15.8733L21.965 10.7141C20.2702 9.63835 18.0019 9.79759 16.4695 11.235L14.1828 13.3799Z" fill="#F8C62C"/>
<path fill-rule="evenodd" clip-rule="evenodd" d="M21.7 1.42218C20.1988 -0.176423 17.8096 -0.436482 16.0211 0.687424L16.0273 0.694078L14.2145 2.42865L16.4632 4.78705L18.2615 3.06639L24.0483 9.21097L19.2227 13.7579L19.2103 13.7448L16.8061 15.9898C16.8155 15.996 16.825 16.0021 16.8345 16.0082L16.8309 16.0116C17.8839 16.6859 19.1604 16.8813 20.3447 16.5882C20.7329 16.4927 21.1112 16.3448 21.4686 16.1441L21.4673 16.1428C21.7801 15.9667 22.0767 15.75 22.3497 15.4927L25.7268 12.3107C25.9519 12.0986 26.1504 11.8688 26.3222 11.6255L26.3243 11.6278C27.54 9.90918 27.4223 7.51533 25.9261 5.92216L21.7 1.42218ZM13.9118 13.0847L16.4012 10.7602L11.2506 5.28802C10.1765 6.98591 10.3356 9.25873 11.771 10.7943L13.9118 13.0847Z" fill="#2F374A"/>
</svg>
