<svg version="1.1" id="Capa_1" xmlns="http://www.w3.org/2000/svg" xmlns:xlink="http://www.w3.org/1999/xlink" x="0px" y="0px" viewBox="0 0 298 298" style="enable-background:new 0 0 298 298;" xml:space="preserve">
<path d="M275.292,212.755l-17.709-10.225l16.421-6.842c3.823-1.593,5.632-5.984,4.038-9.808c-1.594-3.825-5.984-5.628-9.808-4.038 l-26.999,11.249l-47.734-27.559l28.467-10.437c2.952-1.083,4.916-3.892,4.918-7.036c0.002-3.145-1.957-5.957-4.907-7.044 l-28.539-10.513l47.22-27.263l26.903,10.409c0.89,0.344,1.805,0.507,2.704,0.507c3.008,0,5.847-1.822,6.997-4.796 c1.494-3.863-0.426-8.206-4.289-9.701l-15.635-6.049l17.952-10.365c3.587-2.071,4.816-6.658,2.745-10.245 c-2.07-3.588-6.659-4.815-10.245-2.745L250.083,80.48l2.285-17.642c0.532-4.108-2.366-7.869-6.474-8.401 c-4.112-0.542-7.87,2.366-8.401,6.474l-3.757,29.007l-47.734,27.56l5.194-29.87c0.539-3.098-0.912-6.203-3.634-7.777 c-2.722-1.575-6.303-1.285-8.72,0.729l-23.542,19.461V47.826l23.409-17.758c3.291-2.516,4.004-7.222,1.489-10.514 c-2.516-3.291-7.346-3.921-10.638-1.406l-14.26,10.8V7.5c0-4.143-3.357-7.5-7.5-7.5c-4.143,0-7.5,3.357-7.5,7.5v21.732 L127.41,18.716c-3.225-2.601-7.865-2.09-10.462,1.137c-2.599,3.226-2.215,7.947,1.012,10.545l22.341,18.095v51.452l-23.104-19.433 c-2.415-2.017-5.746-2.312-8.469-0.741c-2.725,1.57-4.138,4.673-3.604,7.771l5.185,29.972L65.121,91.418l-3.755-29.007 c-0.531-4.108-4.291-7.01-8.399-6.474c-4.107,0.532-7.005,4.294-6.472,8.401l2.286,17.64L30.208,71.255 c-3.589-2.071-8.175-0.843-10.245,2.745c-2.071,3.587-0.842,8.174,2.745,10.245l18.821,10.866l-15.637,6.05 c-3.863,1.495-5.783,5.838-4.289,9.701c1.15,2.974,3.989,4.796,6.997,4.796c0.899,0,1.815-0.163,2.704-0.507l26.904-10.409 l44.558,25.725l-28.465,10.437c-2.952,1.083-4.916,3.892-4.918,7.036c-0.002,3.145,1.957,5.957,4.907,7.044l28.539,10.513 l-45.199,26.096l-27-11.248c-3.82-1.595-8.214,0.215-9.807,4.039c-1.594,3.823,0.215,8.214,4.039,9.807l16.42,6.841l-18.575,10.725 c-3.587,2.071-4.816,6.658-2.745,10.245c1.389,2.406,3.91,3.751,6.502,3.751c1.272,0,2.563-0.324,3.743-1.006l18.82-10.866 l-2.579,16.566c-0.637,4.093,2.165,7.927,6.258,8.564c0.391,0.061,0.779,0.09,1.162,0.09c3.634,0,6.825-2.645,7.402-6.348 l4.436-28.503l44.56-25.726l-5.194,29.87c-0.539,3.098,0.912,6.203,3.634,7.777c2.72,1.573,5.968,1.283,8.387-0.729l23.207-19.459 v54.525l-22.299,18.095c-3.227,2.598-3.652,7.319-1.053,10.545c2.597,3.225,7.194,3.734,10.42,1.137l12.933-10.517V290.5 c0,4.143,3.357,7.5,7.5,7.5c4.143,0,7.5-3.357,7.5-7.5v-20.448l14.301,10.8c1.359,1.038,3.043,1.541,4.631,1.54 c2.258,0,4.531-1.015,6.007-2.946c2.515-3.292,1.739-7.998-1.552-10.514l-23.388-17.758v-55.12l23.439,19.435 c1.381,1.153,3.173,1.743,4.892,1.743c1.286,0,2.62-0.33,3.786-1.002c2.725-1.57,4.201-4.673,3.666-7.772l-5.155-29.971 l47.225,27.263l4.439,28.503c0.577,3.702,3.77,6.348,7.404,6.348c0.383,0,0.772-0.029,1.163-0.09 c4.093-0.638,6.895-4.472,6.258-8.564l-2.579-16.566l17.953,10.365c1.182,0.682,2.471,1.006,3.743,1.006 c2.592,0,5.113-1.345,6.502-3.751C280.108,219.413,278.879,214.826,275.292,212.755z M197.644,148.038l-21.067,7.724L163.135,148 l13.401-7.737L197.644,148.038z M172.754,105.145l-3.927,22.104l-13.527,7.761v-15.474L172.754,105.145z M123.246,105.105 l17.055,14.382v15.522l-13.319-7.738L123.246,105.105z M98.626,147.962l21.065-7.724L133.135,148l-13.401,7.737L98.626,147.962z  M123.182,190.855l3.761-22.104l13.358-7.76v15.475L123.182,190.855z M172.69,190.894l-17.389-14.382V160.99l13.487,7.738 L172.69,190.894z"/>
</svg>
