<svg width="23" height="23" viewBox="0 0 23 23" fill="none" xmlns="http://www.w3.org/2000/svg">
<path fill-rule="evenodd" clip-rule="evenodd" d="M7.47423 13.3685C4.97969 13.3685 0 14.6204 0 17.1056V18.9741H14.9485V17.1056C14.9485 14.6204 9.96877 13.3685 7.47423 13.3685Z" fill="black"/>
<path fill-rule="evenodd" clip-rule="evenodd" d="M7.47405 11.5001C9.53879 11.5001 11.2112 9.82773 11.2112 7.76299C11.2112 5.69826 9.53879 4.02588 7.47405 4.02588C5.40932 4.02588 3.73694 5.69826 3.73694 7.76299C3.73694 9.82773 5.40932 11.5001 7.47405 11.5001Z" fill="black"/>
<path fill-rule="evenodd" clip-rule="evenodd" d="M16.5717 12.5465C18.3473 12.5465 19.7856 11.1083 19.7856 9.33258C19.7856 7.5569 18.3473 6.11865 16.5717 6.11865C14.796 6.11865 13.3577 7.5569 13.3577 9.33258C13.3577 11.1083 14.796 12.5465 16.5717 12.5465Z" fill="black"/>
<path fill-rule="evenodd" clip-rule="evenodd" d="M10.1445 18.9741H16.5722V16.9026C16.5722 15.8577 15.7781 15.0095 14.6414 14.359C15.3524 14.2219 16.0305 14.1533 16.5723 14.1533C18.7176 14.1533 23.0002 15.23 23.0002 17.3672V18.9741H10.1445V18.9741Z" fill="black"/>
</svg>
