{"asset":{"generator":"Khronos glTF Blender I/O v1.0.5","version":"2.0"},"scene":0,"scenes":[{"name":"Scene","nodes":[0,1,2,3]}],"nodes":[{"name":"Light","rotation":[0.16907575726509094,0.7558803558349609,-0.27217137813568115,0.570947527885437],"translation":[4.076245307922363,5.903861999511719,-1.0054539442062378],"matrix":[1,0,0,0,0,1,0,0,0,0,1,0,0,0,0,1]},{"name":"Camera","rotation":[0.483536034822464,0.33687159419059753,-0.20870360732078552,0.7804827094078064],"translation":[7.358891487121582,4.958309173583984,6.925790786743164]},{"mesh":0,"name":"Circle"},{"name":"Empty","rotation":[0,-0.49937137961387634,0,0.8663880228996277]}],"meshes":[{"name":"Circle.002","primitives":[{"attributes":{"POSITION":0,"NORMAL":1,"TEXCOORD_0":2},"indices":3}]}],"accessors":[{"bufferView":0,"componentType":5126,"count":720,"max":[1.1387393474578857,0.019999999552965164,1.2838963270187378],"min":[-1.1397771835327148,0,-1.2839086055755615],"type":"VEC3"},{"bufferView":1,"componentType":5126,"count":720,"type":"VEC3"},{"bufferView":2,"componentType":5126,"count":720,"type":"VEC2"},{"bufferView":3,"componentType":5123,"count":1428,"type":"SCALAR"}],"bufferViews":[{"buffer":0,"byteLength":8640,"byteOffset":0},{"buffer":0,"byteLength":8640,"byteOffset":8640},{"buffer":0,"byteLength":5760,"byteOffset":17280},{"buffer":0,"byteLength":2856,"byteOffset":23040}],"buffers":[{"byteLength":25896,"uri":"data:application/octet-stream;base64,"}]}
