{"asset":{"generator":"Khronos glTF Blender I/O v1.3.48","version":"2.0"},"scene":0,"scenes":[{"name":"Scene","nodes":[0,1]}],"nodes":[{"mesh":0,"name":"Cube.032","scale":[0.18973584473133087,0.14596089720726013,0.18973584473133087],"translation":[0.0012757987715303898,0.42667609453201294,0.26679959893226624]},{"mesh":1,"name":"Cube.033","scale":[0.18973584473133087,0.14596089720726013,0.18973584473133087],"translation":[0.0012757987715303898,0.42667609453201294,0.26679959893226624]}],"materials":[{"doubleSided":true,"emissiveFactor":[0,0.004805309232324362,0.16727568209171295],"name":"Material.001"},{"doubleSided":true,"emissiveFactor":[1,0.47933468222618103,0.019931485876441002],"name":"Material.002"}],"meshes":[{"name":"Cube.042","primitives":[{"attributes":{"POSITION":0,"NORMAL":1,"TEXCOORD_0":2},"indices":3,"material":0}]},{"name":"Cube.043","primitives":[{"attributes":{"POSITION":4,"NORMAL":5,"TEXCOORD_0":6},"indices":7,"material":1}]}],"accessors":[{"bufferView":0,"componentType":5126,"count":192,"max":[1.047401785850525,1.3665449619293213,1.0523744821548462],"min":[-1.0467172861099243,0.002043008804321289,-1.0523744821548462],"type":"VEC3"},{"bufferView":1,"componentType":5126,"count":192,"type":"VEC3"},{"bufferView":2,"componentType":5126,"count":192,"type":"VEC2"},{"bufferView":3,"componentType":5123,"count":288,"type":"SCALAR"},{"bufferView":4,"componentType":5126,"count":228,"max":[1.047401785850525,1.3665449619293213,1.0523744821548462],"min":[-1.0467172861099243,0.002043008804321289,-1.0523744821548462],"type":"VEC3"},{"bufferView":5,"componentType":5126,"count":228,"type":"VEC3"},{"bufferView":6,"componentType":5126,"count":228,"type":"VEC2"},{"bufferView":7,"componentType":5123,"count":348,"type":"SCALAR"}],"bufferViews":[{"buffer":0,"byteLength":2304,"byteOffset":0},{"buffer":0,"byteLength":2304,"byteOffset":2304},{"buffer":0,"byteLength":1536,"byteOffset":4608},{"buffer":0,"byteLength":576,"byteOffset":6144},{"buffer":0,"byteLength":2736,"byteOffset":6720},{"buffer":0,"byteLength":2736,"byteOffset":9456},{"buffer":0,"byteLength":1824,"byteOffset":12192},{"buffer":0,"byteLength":696,"byteOffset":14016}],"buffers":[{"byteLength":14712,"uri":"data:application/octet-stream;base64,"}]}