<svg width="36" height="22" viewBox="0 0 36 22" fill="none" xmlns="http://www.w3.org/2000/svg">
<path fill-rule="evenodd" clip-rule="evenodd" d="M34.477 13.4315C34.5343 13.5117 34.5996 13.6304 34.6784 13.7735C34.8487 14.0831 35.0819 14.507 35.4335 14.9023C35.4654 15.2908 35.2636 15.4777 35.0196 15.7035C34.9718 15.7478 34.9224 15.7935 34.8729 15.8425L34.8352 15.9066C34.7965 16.0854 34.7987 16.2807 34.8009 16.4755C34.8047 16.8121 34.8084 17.1469 34.6008 17.3915C34.3143 17.7183 34.1895 18.0022 34.0543 18.3097C33.8535 18.7666 33.6298 19.2756 32.8189 20.0544C32.7937 19.583 32.7375 19.317 32.7001 19.1397C32.6592 18.9461 32.6407 18.8582 32.7092 18.7244C32.8728 18.5752 33.0606 18.4744 33.2462 18.3793C33.3097 18.3814 33.3738 18.3843 33.4379 18.3879C33.5603 18.2565 33.7092 17.9968 33.8787 17.7014C33.9996 17.4905 34.1311 17.2614 34.2707 17.0478C34.3661 16.9299 34.362 16.7679 34.3581 16.61C34.3569 16.5585 34.3556 16.5074 34.3578 16.4584C34.2783 16.5456 34.1984 16.6324 34.1185 16.7192C33.8815 16.9767 33.6442 17.2344 33.4154 17.5039C33.365 17.5725 33.3167 17.6408 33.2694 17.7075C32.9941 18.0966 32.754 18.4358 32.3252 18.5147C32.3494 18.2806 32.3346 18.047 32.3199 17.8136C32.307 17.6081 32.294 17.4028 32.3077 17.1977C32.3096 16.9636 32.598 16.932 32.8993 16.899C33.1394 16.8726 33.3876 16.8454 33.5059 16.7142C33.8011 16.4145 34.0935 16.1061 34.3449 15.7445C34.2994 15.6333 34.2873 15.5831 34.263 15.5398C34.2003 15.4281 34.0565 15.3619 33.0516 14.4152C32.2833 14.6311 31.0828 14.8517 30.4881 14.9353C30.37 14.7668 30.3368 14.5434 30.3104 14.328C29.7677 14.642 28.9227 14.8878 28.3334 14.9512C27.6004 15.0355 27.0685 14.7816 26.6916 14.6017C26.368 14.4471 26.1586 14.3472 26.0342 14.5628C25.9081 14.7542 25.8225 14.9161 25.7484 15.0561C25.4742 15.5742 25.3591 15.7918 23.9414 16.0939C23.1787 16.2398 22.9557 16.6649 22.6272 17.2912C22.4536 17.6222 22.2505 18.0093 21.9228 18.4412L21.9129 18.4523C21.677 18.7168 21.4335 18.9897 21.3104 19.3706C21.4409 19.6912 21.672 19.9016 21.898 20.1019C22.032 20.2111 22.0826 20.4067 22.1301 20.5907C22.1347 20.6082 22.1392 20.6257 22.1437 20.643C21.8931 20.8377 21.6119 20.9466 21.3331 21.0546C21.3098 21.0636 21.2865 21.0726 21.2632 21.0817C21.1851 20.9495 21.1135 20.8314 21.0482 20.7237C20.5903 19.9678 20.4437 19.7259 20.5362 18.7546C20.7524 18.7922 20.8358 18.8106 20.8963 18.7814C20.9586 18.7514 20.9967 18.6711 21.1305 18.5096C21.1821 18.4342 21.2446 18.3701 21.312 18.301C21.6297 17.975 22.0582 17.5355 21.9891 15.261C21.9934 15.1127 22.1093 15.0824 22.212 15.0555C22.245 15.0469 22.2767 15.0386 22.3029 15.0268C23.6423 14.6299 23.6607 13.5594 23.6755 12.6947C23.6791 12.4845 23.6825 12.2864 23.7047 12.1132C22.972 11.7245 22.2445 11.3198 21.5171 10.9151C20.3609 10.2718 19.2047 9.62861 18.0278 9.04974C17.6987 8.88493 17.3622 8.74908 17.0257 8.61321C16.7296 8.49368 16.4335 8.37414 16.1424 8.23487C15.8138 8.08519 15.4958 7.93042 15.1884 7.78079C13.4995 6.95884 12.1295 6.29209 11.0689 7.47763C11.1954 7.59074 11.3101 7.72621 11.3793 7.90705C11.2381 8.14425 11.1983 8.21978 11.1386 8.24206C11.0743 8.26609 10.9868 8.22822 10.7242 8.2644C10.6347 8.57356 10.6368 8.90548 10.6388 9.23217C10.6392 9.2953 10.6396 9.35823 10.6393 9.42077C10.6326 10.3511 10.986 10.8495 11.2564 11.2307C11.2879 11.2751 11.3182 11.3179 11.3467 11.3596C11.4642 11.521 11.2523 11.7825 11.1246 11.642C10.2916 10.8248 10.296 9.61034 10.2984 8.92946C10.2986 8.88045 10.2987 8.83421 10.2986 8.79108C10.1691 8.85853 10.0319 8.86827 9.89462 8.87801C9.76364 8.8873 9.63268 8.8966 9.50857 8.95607C9.37625 9.01647 9.24637 9.08477 9.11647 9.15308C8.98913 9.22004 8.86177 9.28701 8.73206 9.34657C8.73517 9.3863 8.73333 9.4338 8.73141 9.48336C8.72535 9.6396 8.71849 9.81629 8.86363 9.83434C8.95772 9.82784 9.04652 9.78073 9.1353 9.73364C9.26297 9.66592 9.39059 9.59822 9.53386 9.65133C9.63803 9.65895 9.652 9.78259 9.66441 9.89246C9.66728 9.91783 9.67006 9.94246 9.67385 9.96476C9.69391 9.97144 9.71463 9.9781 9.7358 9.98491C9.98407 10.0648 10.2945 10.1647 10.3329 10.5404C10.3458 10.8624 10.2797 11.1714 10.2136 11.4804C10.1762 11.6548 10.1389 11.8292 10.1158 12.0059C10.0253 12.6774 9.9865 13.3596 9.95782 14.0398C11.1253 13.7219 11.3741 12.7272 11.6392 11.6671C11.809 10.9884 11.9854 10.283 12.4139 9.71114C12.7772 9.20898 13.4046 9.07569 13.8741 9.40275C14.7165 9.99766 14.4802 11.7536 13.7004 11.8055C13.1867 11.8401 13.0989 10.5257 13.7763 10.9222C13.7664 10.8932 13.7574 10.861 13.7481 10.8278C13.709 10.6886 13.6651 10.5322 13.5362 10.5224C12.9946 10.5577 12.6859 11.2027 13.5205 12.4576C14.0366 13.2567 13.7212 15.0974 12.7141 15.609C12.7216 15.6303 12.7298 15.6517 12.738 15.6732C12.7727 15.7637 12.8084 15.857 12.7957 15.9606C12.7462 16.3194 12.3115 16.4728 12.1406 16.1724C12.0764 16.0837 12.1127 15.9868 12.1476 15.8932C12.1598 15.8606 12.1718 15.8284 12.1794 15.797C12.0321 15.6774 11.8589 15.7005 11.7442 15.8734C11.7779 15.9607 11.8111 16.0488 11.8444 16.137C12.0506 16.684 12.2595 17.238 12.6163 17.653C12.8827 18.057 14.1539 18.2236 14.5191 17.3886C14.721 16.9923 14.3892 16.4239 14.0406 16.4988C13.9405 16.5204 13.846 16.6386 13.8522 16.7747C13.8872 16.809 13.9303 16.8329 13.9734 16.8568C14.0534 16.9012 14.1336 16.9457 14.1632 17.0572C14.1599 17.2302 14.0402 17.312 13.9359 17.3832L13.927 17.3893C13.9066 17.3751 13.8859 17.3613 13.8651 17.3474C13.7688 17.2831 13.671 17.2179 13.6003 17.1112C13.3591 16.7618 13.6194 16.202 13.9248 16.0939C14.2627 16.0737 14.5911 16.3511 14.7564 16.7222C14.8836 17.0276 14.8058 17.3782 14.7355 17.6948C14.73 17.7195 14.7246 17.744 14.7193 17.7683C16.7693 16.3349 16.658 13.8814 15.7651 13.3049C15.814 13.7358 15.8545 14.2452 15.6082 14.596C15.326 14.9606 14.8548 15.0052 14.4966 14.8172C13.7459 14.3719 13.7493 12.7559 14.5062 12.3193C15.1303 11.9813 15.908 12.3164 16.301 13.008C16.924 14.0581 16.9224 16.0162 16.0114 17.202C14.7386 18.8806 12.9691 18.8344 12.1985 18.8143C12.1006 18.8118 12.0188 18.8096 11.9562 18.8115C9.07244 18.7297 7.07463 18.7475 5.66755 18.76C2.58833 18.7875 2.33818 18.7897 1.8232 17.6681C1.37587 16.6666 1.79856 15.9036 2.34781 15.9217C3.30604 15.9055 3.20358 18.0679 2.05262 17.1278C2.55228 18.2971 2.81025 18.2984 3.25015 18.3007C3.31627 18.301 3.3865 18.3014 3.46228 18.3057C2.84716 17.6334 2.97563 16.4511 3.80809 16.3561C4.01107 16.341 4.14098 16.5932 4.21858 16.7999C4.4115 17.3205 3.65335 17.7947 3.65742 17.194C3.69335 17.0951 3.77266 17.0608 3.85068 17.027C3.88744 17.011 3.92393 16.9952 3.95544 16.9729C3.93962 16.9462 3.92758 16.9153 3.91555 16.8844C3.89508 16.8318 3.87463 16.7794 3.83566 16.7481C3.51404 16.5715 3.1401 17.1328 3.34533 17.5075C3.49151 17.8021 3.78504 18.0745 4.06507 17.9534C4.55219 17.4838 4.82414 16.765 5.08462 16.0767C5.09867 16.0395 5.11267 16.0025 5.12668 15.9656C5.06259 15.9094 4.99736 15.8539 4.93269 15.7992L4.75724 15.8965C4.76232 15.9242 4.77074 15.9528 4.77926 15.9819C4.80378 16.0654 4.82925 16.1522 4.77918 16.2286C4.62063 16.5204 4.17922 16.3266 4.20171 15.9678C4.19364 15.8458 4.26177 15.7691 4.32756 15.695C4.34877 15.6711 4.36974 15.6475 4.38783 15.6227C3.3549 15.6591 2.31366 15.5765 1.85924 14.3784C1.32405 12.9175 1.44582 11.4781 2.46033 10.4323C3.06667 9.82329 2.89562 8.0039 2.18086 7.91644C1.90308 7.88545 1.58595 8.01011 1.4302 8.3235C1.31208 8.5623 1.35079 8.85192 1.3862 9.11682C1.38872 9.13566 1.39122 9.15438 1.39364 9.17295C1.40833 9.11887 1.42088 9.06294 1.43348 9.00678C1.47057 8.8415 1.50809 8.67429 1.6017 8.54684C1.87353 8.16977 2.62191 8.18395 2.63799 8.98272C2.65401 9.7294 2.24632 10.5761 1.44761 10.219C0.146402 9.71431 0.27045 6.63265 1.88225 6.39475C1.87204 6.35823 1.86284 6.31946 1.85351 6.28011C1.80833 6.08969 1.76 5.88595 1.57918 5.86086L1.66407 5.74775C1.59058 5.71038 1.51768 5.67188 1.44472 5.63334C1.41777 5.61911 1.3908 5.60487 1.3638 5.59068C1.53195 5.39978 1.74336 5.37247 1.95525 5.34509C2.07284 5.3299 2.19057 5.31469 2.30113 5.27149L2.23873 5.05537C2.35402 5.01454 2.47378 5.01215 2.5928 5.00977C2.70481 5.00753 2.81616 5.00531 2.92248 4.97108C3.12601 4.68434 3.44148 4.8623 3.64446 5.05395C3.50557 5.11592 3.36782 5.18866 3.25256 5.30828C3.29641 5.32559 3.38472 5.36016 3.42911 5.37743C3.42744 5.40484 3.42508 5.44563 3.42272 5.48648C3.42031 5.5283 3.41789 5.57019 3.41619 5.59789C4.61871 6.35196 5.02028 6.93361 4.76343 9.05475C4.94364 9.33358 5.12672 9.60923 5.30982 9.88492C5.42952 10.0651 5.54923 10.2454 5.66815 10.4265C6.21751 9.66562 6.16278 8.80268 6.11177 7.99847C6.08664 7.6022 6.06241 7.22019 6.1118 6.87167C5.83178 6.97832 5.58886 6.70021 5.52646 6.3666C5.63635 6.33748 5.71558 6.41494 5.79538 6.49295C5.82419 6.52112 5.85307 6.54935 5.8835 6.57267C5.99088 6.58564 6.05276 6.43003 6.0758 6.31688C6.05577 6.23713 6.02725 6.16125 5.99879 6.08554C5.94574 5.94445 5.89294 5.804 5.89587 5.64035C5.64794 5.66509 5.6455 5.6567 5.61654 5.55687C5.60474 5.51618 5.58853 5.46031 5.5495 5.38531C5.59374 5.33079 5.63795 5.27701 5.68219 5.22319L5.68276 5.22249C5.68221 5.11513 5.68276 5.00778 5.68445 4.90042C5.47923 5.33055 5.20259 5.70016 4.86632 5.96383C4.86347 5.99832 4.86348 6.0364 4.86349 6.07545C4.86353 6.20609 4.86358 6.34769 4.75666 6.40259C4.41817 6.5582 4.03805 6.01642 4.26128 5.61654C4.37599 5.36796 4.61383 5.49404 4.75103 5.63455C4.90492 5.26935 5.02218 4.9324 5.12688 4.63152C5.52101 3.49896 5.73729 2.87746 7.06033 3.18421C7.27515 3.26293 7.34715 3.54949 7.41095 3.80347C7.42247 3.84931 7.43372 3.8941 7.4455 3.9364C7.53208 3.904 7.61869 3.87155 7.70528 3.83768C7.85878 4.00843 7.98306 4.25267 7.97967 4.52068C7.94438 4.63835 7.87919 4.73379 7.81474 4.82815C7.79396 4.85858 7.77325 4.8889 7.75364 4.91982C7.84247 4.97529 7.93078 5.03151 8.01847 5.08915C7.98699 5.19867 7.95549 5.30744 7.92346 5.41626C8.10211 5.50502 8.18569 5.53387 8.24194 5.59008C8.31065 5.65875 8.33857 5.76824 8.4492 6.07765C8.47404 6.15873 8.50469 6.2379 8.53538 6.31718C8.60613 6.49993 8.6771 6.68323 8.67751 6.89177C8.68251 6.95303 8.68323 7.01585 8.68394 7.07885C8.68556 7.22111 8.68719 7.36431 8.73824 7.49265C8.85913 7.67783 9.05482 7.51859 9.15827 7.38817C9.23486 7.24632 9.1528 7.11967 9.07877 7.0054C9.05879 6.97457 9.0394 6.94463 9.02387 6.91555C9.05247 6.93442 9.0831 6.95015 9.11387 6.96596C9.18415 7.00204 9.25517 7.03852 9.30445 7.1137L9.25722 7.33199L9.29432 7.4343C9.42633 7.33022 9.55542 7.41473 9.67588 7.4936C9.6955 7.50645 9.7149 7.51915 9.73404 7.53085C10.0929 7.08295 10.1895 7.11031 10.6145 7.23066C10.6441 7.23906 10.6754 7.24791 10.7085 7.25709C11.8775 5.72894 13.6285 6.57323 15.4793 7.46558C15.9774 7.70575 16.4827 7.94939 16.9859 8.15121C17.7778 8.4482 18.8021 8.89972 23.2397 11.41C23.243 11.3184 23.247 11.2277 23.2515 11.1369C23.3319 11.1888 23.4129 11.2421 23.4933 11.2954C23.3662 11.0079 23.342 10.6801 23.3932 10.3602C23.4556 10.5151 23.5304 10.6628 23.6141 10.8011C23.6107 10.7476 23.6043 10.691 23.5977 10.633C23.569 10.3803 23.5375 10.1029 23.7378 9.95817C23.7395 10.003 23.742 10.0705 23.7444 10.1376C23.7468 10.2032 23.7491 10.2685 23.7508 10.3119C23.7873 10.2623 23.8217 10.209 23.8562 10.1556C23.9468 10.0152 24.0378 9.87404 24.1702 9.7968C24.1849 9.96589 24.1174 10.0897 24.0498 10.2136C23.9904 10.3225 23.931 10.4314 23.9273 10.5713C23.9262 10.5879 23.9251 10.6047 23.924 10.6216C23.9054 10.9008 23.8838 11.226 24.0555 11.4351C24.1979 11.4004 24.3194 11.2987 24.4407 11.1972C24.5053 11.1432 24.5699 11.0892 24.6375 11.0453C25.1305 10.7208 26.1301 10.433 27.1548 10.7903C27.513 10.9076 28.7545 11.0717 29.2696 10.7846C29.6753 10.5837 29.8001 10.4526 29.9132 10.3338C29.9572 10.2876 29.9994 10.2432 30.0557 10.1974C30.1299 10.1422 30.2062 10.1101 30.2819 10.0784C30.6052 9.94265 30.9151 9.81257 30.9846 7.90551C30.0131 7.39479 29.9442 7.16641 29.7678 6.58148C29.7635 6.56745 29.7592 6.55322 29.7549 6.53876C29.4317 6.70668 29.2337 6.82265 29.098 6.90209C28.8304 7.05885 28.8056 7.07334 28.5414 7.06398C28.9941 6.07546 29.2878 6.0983 29.7246 6.13228C29.7767 6.13633 29.8309 6.14054 29.8876 6.14321C29.8728 6.11212 29.8592 6.07613 29.8452 6.03915C29.796 5.90896 29.7422 5.76639 29.6143 5.78153C29.2361 5.74909 28.9516 5.7369 28.7273 5.72729C28.0655 5.69893 27.9281 5.69304 27.4529 5.25556C27.2831 4.98052 26.9991 4.84142 26.7198 4.70458C26.349 4.52289 25.9863 4.34517 25.9094 3.85854C25.8475 3.45506 25.784 3.02206 25.8886 2.62146C26.0209 2.7845 26.0492 3.00147 26.0777 3.22031C26.0998 3.38925 26.1219 3.5593 26.1922 3.70651C26.2818 3.96765 26.4777 4.05893 26.6736 4.15023C26.7728 4.19646 26.8721 4.24271 26.9575 4.31102C26.6522 3.15331 26.582 1.62399 27.2684 0.918264C27.435 1.18362 27.3445 1.48721 27.2585 1.77585C27.2301 1.87124 27.2021 1.965 27.1841 2.0552C27.0154 2.97309 27.1847 4.10282 27.824 4.66261C27.7831 4.54558 27.7331 4.43363 27.6832 4.32168C27.6083 4.15379 27.5334 3.98591 27.4889 3.8009C27.4645 2.91059 27.8428 2.61429 28.3826 2.19152C28.5271 2.07833 28.6832 1.95607 28.8462 1.81092L28.8707 1.78929C29.0369 1.64214 29.2039 1.49428 29.3883 1.38438C29.3978 1.39356 29.4107 1.4059 29.4246 1.41926C29.4512 1.44468 29.4815 1.47377 29.4996 1.49174C29.464 1.7512 29.2389 2.0127 29.0487 2.21511C28.943 2.30562 28.8239 2.37743 28.7045 2.4494C28.4476 2.60427 28.1895 2.75985 28.0624 3.10418C27.9032 3.51698 28.0589 3.94225 28.2029 4.33535C28.2353 4.42389 28.2671 4.51081 28.2946 4.59559C28.3111 4.42515 28.3201 4.28414 28.3277 4.16473C28.3685 3.52218 28.3696 3.50521 29.2927 2.89598C29.4588 2.80442 29.5337 2.63103 29.6019 2.47295C29.6786 2.29537 29.747 2.1371 29.9269 2.13586C30.0001 2.45576 29.9365 2.80664 29.7403 3.03215C29.7658 3.0426 29.7946 3.05114 29.8244 3.05997C29.9385 3.09375 30.0675 3.13195 30.0844 3.29874C30.1228 3.48239 29.852 3.40421 29.6578 3.34818C29.618 3.33668 29.5814 3.32611 29.5514 3.31893C28.5909 3.45744 28.6119 4.1069 28.6289 4.63181C28.6309 4.69519 28.6329 4.75675 28.6331 4.81538C28.7395 4.60177 28.8144 4.43192 28.8716 4.30213C29.0446 3.90976 29.0561 3.88369 29.2893 4.12229C29.0374 4.35068 28.9722 4.74694 28.916 5.11009C29.1111 5.31755 29.3565 5.3327 29.5995 5.34769C29.6982 5.35379 29.7966 5.35986 29.891 5.3788C30.0328 5.42936 30.1293 5.57341 30.2235 5.71423C30.2556 5.76209 30.2873 5.80958 30.3206 5.85289C30.3507 5.8412 30.3794 5.83048 30.4073 5.82005C30.5505 5.76656 30.6737 5.72053 30.8705 5.58847C30.9009 5.56791 30.9309 5.54576 30.9608 5.5236C31.0338 5.46962 31.1069 5.41551 31.1882 5.38385C31.3062 5.35214 31.4241 5.3747 31.5422 5.39727C31.6413 5.41624 31.7405 5.43521 31.8399 5.42205C32.0244 5.35985 32.1557 5.19923 32.2757 5.05251C32.3835 4.92073 32.4821 4.80016 32.6018 4.77217C32.6952 4.82959 32.7358 4.95151 32.7746 5.06772C32.781 5.08715 32.7875 5.10643 32.7941 5.12523C32.7581 5.3914 32.8676 5.60474 32.9749 5.81369C32.9884 5.84001 33.0019 5.86627 33.015 5.89255C33.0212 6.121 32.8478 6.18522 32.689 6.244C32.63 6.26585 32.5731 6.28695 32.5281 6.31546C32.4576 6.41257 32.3941 6.51769 32.3305 6.62289C32.2719 6.71983 32.2133 6.81684 32.1491 6.90771C31.8803 7.22146 32.9274 8.24816 33.1735 8.4895C33.2024 8.5178 33.2202 8.5353 33.2237 8.53958C33.3616 8.73239 33.4461 8.98376 33.6364 9.701C33.5509 9.59629 33.4655 9.49027 33.381 9.38542L33.3659 9.36672C33.3933 9.48532 33.4168 9.58071 33.4367 9.66168C33.528 10.0327 33.5448 10.1008 33.5234 10.7111C33.4536 10.6385 33.4019 10.5434 33.351 10.4496C33.3474 10.4429 33.3437 10.4362 33.3401 10.4295C33.3789 10.6867 33.3811 10.9489 33.3761 11.2098C33.3356 11.2566 33.2962 11.3027 33.2569 11.3495L33.2231 11.2126C33.2141 11.2746 33.1962 11.3999 33.1877 11.4619L33.4965 11.26L33.1861 11.9425C33.1575 11.9623 33.1392 11.9765 33.1114 11.9981C33.1068 12.0017 33.1019 12.0055 33.0966 12.0096C33.0633 12.0703 33.0397 12.1187 33.019 12.1613C32.9566 12.2891 32.9201 12.3641 32.7244 12.56C32.7384 12.464 32.7559 12.3696 32.7733 12.2752C32.7795 12.2414 32.7858 12.2077 32.7919 12.1739C32.7831 12.187 32.7743 12.2 32.7655 12.2131C32.7169 12.2858 32.6681 12.3586 32.6209 12.4325C32.766 12.7416 32.9757 12.9851 33.1877 13.2178C33.2697 13.3315 33.5236 13.3315 33.7983 13.3316C34.025 13.3316 34.2658 13.3316 34.4357 13.3956L34.477 13.4315ZM8.61049 7.96748C8.90513 8.06112 9.17389 7.78518 9.21718 7.40982C9.25356 7.51418 9.2711 7.62553 9.28858 7.73644C9.29137 7.75416 9.29416 7.77186 9.29702 7.78952C9.24812 7.81764 9.19944 7.84643 9.15076 7.87521C8.99744 7.96589 8.8442 8.05652 8.68415 8.12597C8.6465 8.10872 8.63593 8.06425 8.6255 8.02033C8.62113 8.00194 8.61679 7.98365 8.61049 7.96748ZM8.8455 13.9338C8.08923 13.4885 7.45383 12.7745 6.83926 12.0699C7.32109 12.1766 7.7914 12.0597 8.26205 11.9427C8.49663 11.8844 8.7313 11.8261 8.96752 11.7954C8.95646 11.9564 8.9445 12.1173 8.93255 12.2782C8.89163 12.8289 8.85071 13.3796 8.8455 13.9338Z" fill="#2F374A"/>
</svg>
