<svg width="32" height="32" viewBox="0 0 32 32" fill="none" xmlns="http://www.w3.org/2000/svg">
<path d="M12.955 10.6254V5.44312H29.2776V26.8557H7.86499V10.6254H12.955Z" fill="#4DA6E9"/>
<path d="M15.5114 26.8558L29.2775 26.8557V14.9239L22.6375 10.3665C12.5288 14.1732 18.7844 3.18331 11.897 18.8452L15.5114 26.8558Z" fill="#1567A5" fill-opacity="0.569344"/>
<path d="M6.755 8.03394H10.403L12.9551 10.6254H7.86508L6.755 8.03394Z" fill="#BDDEF7"/>
<path d="M10.403 8.03398V3.26715L12.9551 5.44314V10.6254L10.403 8.03398Z" fill="#1567A5"/>
<path d="M10.403 3.26709H23.1579L29.2777 5.4431H12.9551L10.403 3.26709Z" fill="#BDDEF7"/>
<path d="M6.755 8.03394V21.5359L7.86508 26.8557V10.6254L6.755 8.03394Z" fill="#1567A5"/>
<path d="M4.73572 0L5.59138 1.14965H8.93546L7.40908 0H4.73572Z" fill="#BDDEF7"/>
<path d="M8.93571 1.14972H5.59119V6.37531L8.93571 6.37518V1.14972Z" fill="#4DA6E9"/>
<path d="M4.73572 0V4.17908L5.59123 6.37533V1.14973L4.73572 0Z" fill="#1567A5"/>
<path d="M3.01331 6.86584L3.14905 7.78824H4.98811L4.71509 6.86584H3.01331Z" fill="#BDDEF7"/>
<path d="M4.98818 7.78833H3.14929V9.87248L4.98818 9.87277V7.78833Z" fill="#4DA6E9"/>
<path d="M3.01336 6.86584L3 8.68965L3.14909 9.87247V7.78824L3.01336 6.86584Z" fill="#1567A5"/>
<path d="M4.21057 11.9762L4.57015 14.0417H5.9768L5.46127 11.9762H4.21057Z" fill="#BDDEF7"/>
<path d="M4.57056 14.0417H5.97692V19.3869L4.57056 19.387V14.0417Z" fill="#4DA6E9"/>
<path d="M4.21057 11.9762L4.22773 16.8535L4.57053 19.3869V14.0417L4.21057 11.9762Z" fill="#1567A5"/>
<path d="M16.7875 18.0095H22.3824C21.6511 19.5087 20.1884 20.3864 18.4148 20.3864C15.7636 20.3864 13.7341 18.3934 13.7341 15.8154C13.7341 14.6452 14.2278 13.3653 14.9957 12.5608C15.7819 11.7015 16.9704 11.2261 18.2685 11.2261C19.841 11.2261 21.1391 11.8478 21.9802 13.0179H24.9239C24.0463 10.5862 21.2671 8.81262 18.3234 8.81262C14.3741 8.81262 11.2109 11.9026 11.2109 15.7788C11.2109 19.7282 14.4106 22.7999 18.5611 22.7999C20.5906 22.7999 22.3459 22.0868 23.6806 20.7155C24.9239 19.4173 25.6187 17.7352 25.6187 15.9982V15.6691H16.7875V18.0095Z" fill="white"/>
<path d="M9.47701 29.9902H12.3164C12.2862 30.4654 12.1033 30.8971 11.7677 31.2855C11.353 31.7568 10.81 31.9925 10.1388 31.9925C9.5166 31.9925 8.9887 31.7927 8.55506 31.393C8.12897 31.0046 7.90084 30.5238 7.87067 29.9507C7.86688 29.9054 7.86499 29.862 7.86499 29.8206C7.86499 29.2361 8.06673 28.7384 8.47019 28.3274C8.86989 27.9163 9.36763 27.6976 9.96341 27.6712C10.0011 27.6673 10.0407 27.6653 10.0822 27.6653C10.6667 27.6653 11.1606 27.835 11.5641 28.1744C11.7941 28.3667 11.96 28.5929 12.0618 28.8531H11.5924C11.3624 28.4459 11.006 28.1914 10.5234 28.0895C10.3914 28.0631 10.2556 28.0499 10.1161 28.0499C9.58822 28.0499 9.14893 28.2271 8.79825 28.5816C8.45888 28.9247 8.2892 29.3414 8.2892 29.8316C8.2892 30.3331 8.46831 30.7554 8.82653 31.0986C9.18098 31.4379 9.61273 31.6076 10.1218 31.6076C10.6233 31.6076 11.04 31.4417 11.3718 31.1099C11.6056 30.8761 11.7526 30.6291 11.813 30.3689H9.47698L9.47701 29.9902Z" fill="#4DA6E9"/>
<path d="M12.978 31.9189V27.7391H13.3966V31.9189H12.978Z" fill="#4DA6E9"/>
<path d="M15.857 30.3579L17.0278 31.919H16.5075L15.0991 30.0242C15.529 30.0242 15.8401 29.9997 16.0324 29.9507C16.4547 29.8375 16.6658 29.5434 16.6658 29.0683C16.6658 28.6799 16.5188 28.4141 16.2247 28.2708C16.0097 28.169 15.6892 28.1181 15.2631 28.1181H14.6749V31.919H14.2563V27.7391H15.2914C15.8231 27.7391 16.2134 27.807 16.4622 27.9427C16.8808 28.169 17.0901 28.5498 17.0901 29.0853C17.0901 29.6999 16.8129 30.0958 16.2586 30.2731C16.1379 30.3145 16.0041 30.3428 15.857 30.3579Z" fill="#4DA6E9"/>
<path d="M19.7315 27.6656C20.3084 27.6656 20.808 27.8598 21.2303 28.2482L21.417 28.4348C21.7639 28.8421 21.9373 29.3077 21.9373 29.8319C21.9373 30.3862 21.7432 30.8707 21.3548 31.2855C20.9739 31.6965 20.5063 31.9284 19.9521 31.9812C19.8766 31.9887 19.8031 31.9925 19.7315 31.9925C19.1432 31.9925 18.6361 31.7945 18.21 31.3986C17.7952 31.0102 17.5671 30.5332 17.5256 29.9676C17.5218 29.9148 17.5199 29.8601 17.5199 29.8036C17.5199 29.2644 17.7141 28.7892 18.1025 28.3782C18.4796 27.971 18.9415 27.7372 19.4882 27.6769C19.5674 27.6693 19.6485 27.6656 19.7315 27.6656ZM19.7315 28.0502C19.2526 28.0502 18.8378 28.2199 18.4871 28.5592C18.1364 28.9288 17.9554 29.3473 17.9441 29.8149C17.9441 30.3089 18.1176 30.7312 18.4645 31.0819C18.8152 31.4326 19.2375 31.6079 19.7315 31.6079C20.2141 31.6079 20.6289 31.4363 20.9758 31.0932C21.3265 30.7312 21.5056 30.3126 21.5131 29.8375C21.5131 29.3511 21.3397 28.9326 20.9928 28.5819L20.8061 28.4178C20.4856 28.1727 20.1274 28.0502 19.7315 28.0502Z" fill="#4DA6E9"/>
<path d="M23.063 28.7798H22.6501C22.6652 28.3198 22.8311 27.9955 23.1478 27.807C23.3099 27.7127 23.4966 27.6656 23.7078 27.6656C24.0811 27.6656 24.3676 27.8032 24.5675 28.0785L24.6636 28.2538L24.7315 28.4518C24.7504 28.5385 24.7598 28.629 24.7598 28.7233C24.7598 29.0589 24.6165 29.3266 24.3299 29.5264C24.8013 29.764 25.037 30.1392 25.037 30.652C25.037 31.063 24.888 31.4005 24.5901 31.6645C24.345 31.8832 24.0566 31.9925 23.7247 31.9925C23.3137 31.9925 22.9781 31.8473 22.7179 31.557C22.6538 31.4891 22.5992 31.4156 22.5539 31.3364C22.4446 31.1441 22.3842 30.9028 22.3729 30.6124H22.7858C22.8047 30.8726 22.8594 31.0706 22.9498 31.2063C23.1346 31.4778 23.3891 31.6135 23.7134 31.6135C24.0189 31.6135 24.2602 31.491 24.4374 31.2459C24.5581 31.08 24.6184 30.8896 24.6184 30.6746C24.6184 30.3654 24.4996 30.1166 24.2621 29.928C24.1603 29.8451 24.0434 29.7885 23.9114 29.7583C23.8209 29.7395 23.6587 29.7282 23.425 29.7244V29.3511L23.5211 29.357C23.5551 29.3609 23.5909 29.3629 23.6286 29.3629C23.9416 29.3629 24.1565 29.2479 24.2734 29.0179C24.3186 28.9274 24.3412 28.8237 24.3412 28.7068C24.3412 28.4353 24.2376 28.2411 24.0302 28.1242C23.9661 28.0903 23.8982 28.0676 23.8265 28.0563C23.7888 28.0488 23.7492 28.045 23.7078 28.045C23.3835 28.045 23.1799 28.1996 23.0969 28.5088L23.063 28.7181C23.063 28.7407 23.063 28.761 23.063 28.7798Z" fill="#2D82C3"/>
<path d="M25.7496 31.9189V27.7391H26.7338C27.3673 27.7391 27.8518 27.822 28.1874 27.9879C28.2364 28.0144 28.2836 28.0407 28.3288 28.0671C28.9057 28.4103 29.2206 28.9382 29.2734 29.6508C29.2772 29.7149 29.2791 29.779 29.2791 29.8431C29.2791 30.6199 28.9699 31.1987 28.3515 31.5796L28.3119 31.6078C27.9574 31.8152 27.4785 31.9189 26.8752 31.9189L25.7496 31.9189ZM26.1682 31.54H26.7508C27.3767 31.54 27.8386 31.4438 28.1365 31.2515C28.178 31.2251 28.2176 31.1968 28.2553 31.1667C28.6248 30.8688 28.8228 30.4578 28.8492 29.9336C28.853 29.8997 28.8549 29.8639 28.8549 29.8262C28.8549 29.2945 28.6776 28.8703 28.3232 28.5536C28.2515 28.4932 28.1761 28.4385 28.0969 28.3895C27.7991 28.2085 27.3503 28.118 26.7508 28.118H26.1682L26.1682 31.54Z" fill="#2D82C3"/>
</svg>
