<svg width="202" height="61" viewBox="0 0 202 61" fill="none" xmlns="http://www.w3.org/2000/svg">
  <path fill-rule="evenodd" clip-rule="evenodd" d="M51.6873 35.1362V42.2038H56.0523C57.2841 42.2038 58.2473 41.8984 58.9413 41.2874C59.6353 40.6765 59.9817 39.8274 59.9817 38.7399C59.9817 36.3891 58.7805 35.1879 56.3785 35.1362H51.6873ZM51.6873 32.2473H55.5393C56.7612 32.2473 57.7165 31.9703 58.4052 31.416C59.0938 30.8621 59.4381 30.078 59.4381 29.0632C59.4381 27.9446 59.1194 27.1369 58.4829 26.6396C57.8459 26.1428 56.8547 25.8944 55.5083 25.8944H51.6873V32.2473ZM47.7578 45.3411V22.7255H55.5087C58.0665 22.7255 60.0135 23.238 61.349 24.2632C62.6846 25.2883 63.353 26.8156 63.353 28.8452C63.353 29.8811 63.0731 30.8128 62.5139 31.6412C61.955 32.4695 61.1366 33.1119 60.0598 33.5674C61.2816 33.8985 62.2266 34.5227 62.8946 35.4391C63.5626 36.3555 63.8965 37.4559 63.8965 38.7398C63.8965 40.8628 63.2157 42.4935 61.8541 43.6327C60.4921 44.7719 58.5427 45.3411 56.0055 45.3411H47.7578Z" fill="#2F374A" />
  <path fill-rule="evenodd" clip-rule="evenodd" d="M68.0589 45.3416H71.9734V22.726H68.0589V45.3416Z" fill="#2F374A" />
  <path fill-rule="evenodd" clip-rule="evenodd" d="M81.8999 22.726L88.4235 40.0605L94.9319 22.726H100.011V45.3416H96.0971V37.8859L96.4853 27.914L89.8062 45.3416H86.9946L80.3312 27.9293L80.7198 37.8859V45.3416H76.8053V22.726H81.8999Z" fill="#2F374A" />
  <path fill-rule="evenodd" clip-rule="evenodd" d="M108.584 25.8944V42.2038H111.147C113.208 42.2038 114.789 41.559 115.893 40.2701C116.995 38.9809 117.557 37.1298 117.577 34.7171V33.4588C117.577 31.0047 117.044 29.1305 115.978 27.8359C114.911 26.5417 113.363 25.8944 111.333 25.8944H108.584ZM104.655 45.3415V22.7255H111.334C113.333 22.7255 115.106 23.1711 116.654 24.0614C118.203 24.9518 119.401 26.2154 120.25 27.8515C121.099 29.4876 121.524 31.3617 121.524 33.4744V34.6083C121.524 36.7519 121.097 38.6364 120.243 40.2622C119.388 41.8879 118.171 43.1408 116.592 44.0212C115.013 44.9013 113.204 45.3415 111.164 45.3415H104.655Z" fill="#2F374A" />
  <path fill-rule="evenodd" clip-rule="evenodd" d="M130.968 42.6233C131.714 42.6233 132.415 42.4422 133.073 42.0797C133.731 41.7172 134.225 41.2307 134.557 40.6197V37.4509H132.522C131.124 37.4509 130.073 37.6944 129.369 38.1809C128.665 38.6674 128.312 39.3561 128.312 40.2469C128.312 40.9715 128.553 41.5489 129.035 41.9784C129.516 42.4083 130.161 42.6233 130.968 42.6233ZM135.114 45.3415C134.949 45.0203 134.804 44.4974 134.679 43.7728C133.478 45.0257 132.008 45.6524 130.268 45.6524C128.58 45.6524 127.203 45.1708 126.136 44.2077C125.069 43.2445 124.536 42.0537 124.536 40.635C124.536 38.8435 125.202 37.4691 126.532 36.511C127.863 35.5532 129.766 35.0741 132.241 35.0741H134.555V33.9713C134.555 33.1016 134.312 32.4051 133.825 31.8826C133.338 31.3593 132.598 31.098 131.604 31.098C130.744 31.098 130.04 31.313 129.492 31.7425C128.943 32.1723 128.668 32.7184 128.668 33.3814H124.894C124.894 32.4596 125.199 31.5978 125.81 30.795C126.421 29.9923 127.252 29.3632 128.303 28.9076C129.354 28.4521 130.527 28.2244 131.821 28.2244C133.789 28.2244 135.357 28.7187 136.528 29.7075C137.698 30.6967 138.299 32.0868 138.33 33.8783V41.4584C138.33 42.9701 138.542 44.1767 138.967 45.0774V45.3415H135.114Z" fill="#2F374A" />
  <path fill-rule="evenodd" clip-rule="evenodd" d="M147.014 24.4498V28.535H149.981V31.3306H147.014V40.7126C147.014 41.3545 147.141 41.8183 147.395 42.1031C147.648 42.3879 148.101 42.5301 148.754 42.5301C149.188 42.5301 149.629 42.4784 150.074 42.3747V45.2951C149.215 45.5331 148.386 45.6522 147.589 45.6522C144.689 45.6522 143.239 44.0521 143.239 40.8527V31.3306H140.475V28.535H143.239V24.4498H147.014Z" fill="#2F374A" />
  <path fill-rule="evenodd" clip-rule="evenodd" d="M158.757 42.6233C159.503 42.6233 160.204 42.4422 160.862 42.0797C161.519 41.7172 162.014 41.2307 162.345 40.6197V37.4509H160.311C158.912 37.4509 157.861 37.6944 157.157 38.1809C156.453 38.6674 156.101 39.3561 156.101 40.2469C156.101 40.9715 156.342 41.5489 156.823 41.9784C157.305 42.4083 157.95 42.6233 158.757 42.6233ZM162.903 45.3415C162.737 45.0203 162.592 44.4974 162.468 43.7728C161.267 45.0257 159.797 45.6524 158.057 45.6524C156.369 45.6524 154.992 45.1708 153.925 44.2077C152.858 43.2445 152.325 42.0537 152.325 40.635C152.325 38.8435 152.99 37.4691 154.321 36.511C155.652 35.5532 157.555 35.0741 160.03 35.0741H162.344V33.9713C162.344 33.1016 162.1 32.4051 161.614 31.8826C161.127 31.3593 160.387 31.098 159.393 31.098C158.533 31.098 157.829 31.313 157.28 31.7425C156.732 32.1723 156.457 32.7184 156.457 33.3814H152.683C152.683 32.4596 152.988 31.5978 153.599 30.795C154.21 29.9923 155.041 29.3632 156.092 28.9076C157.143 28.4521 158.316 28.2244 159.61 28.2244C161.578 28.2244 163.146 28.7187 164.316 29.7075C165.487 30.6967 166.087 32.0868 166.119 33.8783V41.4584C166.119 42.9701 166.331 44.1767 166.755 45.0774V45.3415H162.903Z" fill="#2F374A" />
  <path fill-rule="evenodd" clip-rule="evenodd" d="M172.426 41.3655C173.13 41.3655 173.674 41.5647 174.057 41.9632C174.44 42.3621 174.631 42.8618 174.631 43.4624C174.631 44.0523 174.44 44.5417 174.057 44.9303C173.674 45.3184 173.13 45.5127 172.426 45.5127C171.753 45.5127 171.22 45.3209 170.826 44.9381C170.433 44.5549 170.236 44.0631 170.236 43.4624C170.236 42.8618 170.427 42.3621 170.81 41.9632C171.194 41.5647 171.732 41.3655 172.426 41.3655Z" fill="#2F374A" />
  <path fill-rule="evenodd" clip-rule="evenodd" d="M179.199 45.3415H182.974V28.5348H179.199V45.3415ZM178.965 24.17C178.965 23.5905 179.149 23.1089 179.516 22.7257C179.884 22.3426 180.41 22.1508 181.093 22.1508C181.777 22.1508 182.304 22.3426 182.677 22.7257C183.05 23.1089 183.236 23.5905 183.236 24.17C183.236 24.7396 183.05 25.2133 182.677 25.5911C182.304 25.9694 181.777 26.1583 181.093 26.1583C180.41 26.1583 179.884 25.9694 179.516 25.5911C179.149 25.2133 178.965 24.7396 178.965 24.17Z" fill="#2F374A" />
  <path fill-rule="evenodd" clip-rule="evenodd" d="M190.15 37.109C190.15 38.8385 190.507 40.1923 191.222 41.1711C191.936 42.1495 192.931 42.6385 194.204 42.6385C195.478 42.6385 196.469 42.1417 197.179 41.1475C197.888 40.1534 198.243 38.6984 198.243 36.7829C198.243 35.0848 197.877 33.7385 197.148 32.7444C196.417 31.7503 195.426 31.253 194.173 31.253C192.941 31.253 191.962 31.7424 191.237 32.7208C190.513 33.6997 190.15 35.1625 190.15 37.109ZM186.374 36.7829C186.374 35.1365 186.7 33.653 187.353 32.3327C188.005 31.0125 188.921 29.9977 190.102 29.2883C191.282 28.579 192.639 28.2244 194.171 28.2244C196.439 28.2244 198.28 28.9544 199.693 30.4143C201.107 31.8743 201.871 33.8109 201.985 36.2237L202 37.1091C202 38.7658 201.682 40.2469 201.045 41.5514C200.408 42.8564 199.497 43.8658 198.311 44.5805C197.125 45.2948 195.756 45.6519 194.203 45.6519C191.831 45.6519 189.934 44.8624 188.51 43.2834C187.086 41.7044 186.374 39.5996 186.374 36.9694V36.7829Z" fill="#2F374A" />
  <path fill-rule="evenodd" clip-rule="evenodd" d="M22.3537 12.5897V15.3249L31.1413 9.71898V57.7078H13.4777V53.7486H11.1724V60.0135H33.447V5.51306L22.3537 12.5897Z" fill="#F9C72C" />
  <path fill-rule="evenodd" clip-rule="evenodd" d="M4.20978 11.5786V24.1645L6.51507 22.6938V13.1667V12.843L20.0488 4.20592V13.1667V14.0604L22.3545 12.5896V0L4.20978 11.5786Z" fill="#F9C72C" />
  <path fill-rule="evenodd" clip-rule="evenodd" d="M20.0479 51.4427H2.75425V27.8271L20.0479 16.7955V51.4427ZM0.449463 26.563V53.7483H22.3545V12.5895L0.449463 26.563Z" fill="#2F374A" />
</svg>
