<svg width="23" height="20" viewBox="0 0 23 20" fill="none" xmlns="http://www.w3.org/2000/svg">
<path fill-rule="evenodd" clip-rule="evenodd" d="M11.6172 0.358411C11.549 0.139931 11.3438 -0.00646676 11.115 0.000206297C10.8862 0.0068793 10.6898 0.164992 10.6345 0.387076L8.79045 7.78653L2.90624 3.98728C2.72177 3.86817 2.4818 3.88036 2.31034 4.01755C2.13888 4.15475 2.07436 4.3862 2.15011 4.59231L5.26103 13.0569L0.35048 14.6783C0.148995 14.7449 0.00966175 14.9291 0.000488545 15.1411C-0.0086847 15.3531 0.114215 15.5486 0.309199 15.6323L6.25703 18.185C6.51614 18.2962 6.81634 18.1763 6.92755 17.9172C7.03876 17.6581 6.91886 17.3579 6.65975 17.2467L1.95021 15.2254L6.08239 13.861C6.21377 13.8177 6.32191 13.7228 6.38207 13.5982C6.44223 13.4736 6.44925 13.33 6.40152 13.2001L3.63531 5.67345L8.83628 9.03156C8.97471 9.12094 9.14776 9.13801 9.30098 9.07741C9.45421 9.01681 9.56876 8.88599 9.60861 8.72611L11.185 2.40061L13.3994 9.49506C13.4458 9.64349 13.5572 9.76271 13.7022 9.81894C13.8472 9.87516 14.0098 9.86226 14.1441 9.78389L20.828 5.88322L17.5593 12.9055C17.502 13.0288 17.4961 13.1699 17.5432 13.2976C17.5902 13.4252 17.6862 13.5287 17.8099 13.5853L21.3167 15.1884L17.2541 17.2611C17.0029 17.3892 16.9032 17.6967 17.0314 17.9479C17.1595 18.199 17.467 18.2988 17.7182 18.1706L22.7215 15.6179C22.8959 15.5289 23.0041 15.348 22.9999 15.1522C22.9957 14.9564 22.8798 14.7802 22.7017 14.6988L18.702 12.8704L22.4418 4.83586C22.536 4.6335 22.4878 4.39342 22.3228 4.24307C22.1579 4.09273 21.9144 4.06696 21.7216 4.17946L14.1831 8.57887L11.6172 0.358411ZM11.8626 8.95357C11.8215 8.73007 11.6232 8.57017 11.3961 8.57737C11.169 8.58457 10.9812 8.75671 10.9544 8.98237L10.4943 12.8516L8.33958 11.0103C8.17478 10.8695 7.93399 10.863 7.76184 10.9947C7.58969 11.1264 7.53301 11.3605 7.62586 11.5564L9.20831 14.8947L6.87486 15.1141C6.67435 15.133 6.50949 15.2802 6.46816 15.4773C6.42683 15.6744 6.51868 15.8754 6.69472 15.9733L8.76033 17.1208L7.67408 18.5626C7.52138 18.7653 7.56189 19.0533 7.76457 19.2061C7.96725 19.3588 8.25535 19.3182 8.40806 19.1156L9.81205 17.2521C9.89205 17.1459 9.92214 17.0103 9.89455 16.8802C9.86697 16.7502 9.78442 16.6385 9.66821 16.5739L8.43757 15.8902L9.94756 15.7483C10.0968 15.7342 10.2298 15.6483 10.3039 15.518C10.3781 15.3877 10.384 15.2294 10.3198 15.094L9.37738 13.1059L10.5506 14.1085C10.6794 14.2186 10.8585 14.2488 11.0164 14.1871C11.1742 14.1254 11.2853 13.9818 11.3053 13.8134L11.5081 12.1087L11.8267 13.8422C11.8547 13.9948 11.9578 14.1229 12.1008 14.1829C12.2439 14.2429 12.4075 14.2267 12.536 14.1398L14.5182 12.7993L13.126 15.3516C13.0484 15.4939 13.0515 15.6667 13.1343 15.8061C13.2171 15.9456 13.3672 16.0311 13.5294 16.0311H15.1757L13.7572 16.8596C13.6424 16.9266 13.5623 17.0401 13.5375 17.1707C13.5127 17.3013 13.5457 17.4362 13.6279 17.5406L14.5724 18.7404C14.7293 18.9398 15.0182 18.9742 15.2176 18.8172C15.417 18.6602 15.4514 18.3713 15.2944 18.1719L14.6765 17.3869L17.1052 15.9684C17.2844 15.8637 17.3712 15.6519 17.317 15.4515C17.2628 15.2512 17.081 15.1121 16.8735 15.1121H14.3034L16.2302 11.5796C16.3317 11.3935 16.2928 11.1622 16.1359 11.0196C15.9791 10.877 15.745 10.8602 15.5695 10.979L12.6034 12.9848L11.8626 8.95357Z" fill="#2F374A"/>
</svg>
