<svg width="23" height="23" viewBox="0 0 23 23" fill="none" xmlns="http://www.w3.org/2000/svg">
<path fill-rule="evenodd" clip-rule="evenodd" d="M8.54777 14.4652C5.27332 14.4652 2.6301 11.822 2.6301 8.54753C2.6301 5.27309 5.27332 2.62986 8.54777 2.62986C11.8222 2.62986 14.4654 5.27309 14.4654 8.54753C14.4654 11.822 11.8222 14.4652 8.54777 14.4652ZM16.438 14.4654H15.3991L15.0309 14.1103C16.3196 12.6112 17.0955 10.665 17.0955 8.54774C17.0955 3.82676 13.2687 0 8.54774 0C3.82676 0 0 3.82676 0 8.54774C0 13.2687 3.82676 17.0955 8.54774 17.0955C10.665 17.0955 12.6112 16.3196 14.1103 15.0309L14.4654 15.3991V16.438L21.0406 23L23 21.0406L16.438 14.4654Z" fill="#2f374a"/>
</svg>
