<svg width="36" height="23" viewBox="0 0 36 23" fill="none" xmlns="http://www.w3.org/2000/svg">
<rect x="23.3779" y="13.2222" width="0.943208" height="3.30123" fill="#2F374A"/>
<rect x="22.4349" y="16.0541" width="0.825307" height="2.00432" transform="rotate(-45 22.4349 16.0541)" fill="#2F374A"/>
<rect x="24.6856" y="15.4706" width="0.825307" height="2.00432" transform="rotate(45 24.6856 15.4706)" fill="#2F374A"/>
<rect x="27.6272" y="17.4666" width="0.943208" height="3.30123" transform="rotate(-180 27.6272 17.4666)" fill="#2F374A"/>
<rect x="28.5704" y="14.6345" width="0.825307" height="2.00432" transform="rotate(135 28.5704 14.6345)" fill="#2F374A"/>
<rect x="26.3194" y="15.2181" width="0.825307" height="2.00432" transform="rotate(-135 26.3194 15.2181)" fill="#2F374A"/>
<path fill-rule="evenodd" clip-rule="evenodd" d="M23.5471 8.36558C23.9522 6.98545 25.2284 5.97824 26.7389 5.97824C28.4905 5.97824 29.9261 7.33247 30.0554 9.05081L30.0884 9.48867L30.498 9.33055C30.8691 9.18731 31.2726 9.10862 31.6953 9.10862C33.5322 9.10862 35.0214 10.5977 35.0214 12.4346C35.0214 14.2317 33.596 15.6961 31.8143 15.7586L31.755 15.7607H29.2171V16.4128H32.1518V16.3869C34.134 16.1604 35.6735 14.4774 35.6735 12.4346C35.6735 10.2376 33.8924 8.45646 31.6953 8.45646C31.3353 8.45646 30.9861 8.50437 30.6539 8.59426C30.319 6.73579 28.6937 5.32608 26.7389 5.32608C25.0806 5.32608 23.66 6.34045 23.0624 7.78201C22.6227 7.54656 22.1201 7.413 21.5868 7.413C20.0357 7.413 18.7482 8.54104 18.4997 10.0217C16.745 10.0335 15.326 11.4597 15.326 13.2172C15.326 14.9821 16.7568 16.4128 18.5216 16.4128H21.7825V15.7607H18.5216C17.117 15.7607 15.9782 14.6219 15.9782 13.2172C15.9782 11.8125 17.117 10.6738 18.5216 10.6738C18.6016 10.6738 18.6806 10.6775 18.7585 10.6847L19.0922 10.7154L19.1138 10.381C19.1973 9.08815 20.2727 8.06516 21.5868 8.06516C22.1312 8.06516 22.6337 8.24033 23.0424 8.53747L23.4167 8.8096L23.5471 8.36558Z" fill="#2F374A"/>
<path fill-rule="evenodd" clip-rule="evenodd" d="M26.7389 5.65216C25.2171 5.65216 23.9126 6.58283 23.3637 7.90688L23.3605 7.91461C23.3615 7.91203 23.3626 7.90945 23.3637 7.90688C23.9123 6.58318 25.217 5.65216 26.7389 5.65216ZM22.9132 8.07197L23.2259 8.23936L23.3605 7.91461C23.3124 8.0314 23.2702 8.15123 23.2342 8.27373C23.1322 8.19955 23.025 8.13208 22.9132 8.07197ZM22.9086 8.06948L22.9132 8.07197C22.9117 8.07114 22.9101 8.07031 22.9086 8.06948ZM22.9045 7.34714C23.6167 5.95448 25.0657 5 26.7389 5C28.7359 5 30.4146 6.35953 30.9011 8.20364C31.1588 8.1555 31.4244 8.13038 31.6954 8.13038C34.0725 8.13038 35.9996 10.0575 35.9996 12.4347C35.9996 14.5447 34.4817 16.2996 32.4779 16.6679V16.6737L28.8911 16.7389V15.4346H31.7493L31.8029 15.4327C33.4097 15.3763 34.6953 14.0555 34.6953 12.4347C34.6953 10.7778 33.3522 9.4347 31.6954 9.4347C31.3134 9.4347 30.9497 9.50575 30.6155 9.63476L29.7962 9.951L29.7303 9.07528C29.6137 7.5258 28.3187 6.30432 26.7389 6.30432C25.377 6.30432 24.2255 7.21244 23.86 8.45744L23.5993 9.34547L22.8507 8.80121C22.4959 8.54323 22.0601 8.39124 21.5868 8.39124C20.4458 8.39124 19.5117 9.27966 19.4392 10.402L19.396 11.0709L18.7286 11.0094C18.6606 11.0031 18.5916 10.9999 18.5217 10.9999C17.2971 10.9999 16.3043 11.9926 16.3043 13.2172C16.3043 14.4419 17.2971 15.4346 18.5217 15.4346H22.1086V16.7389H18.5217C16.5767 16.7389 15 15.1622 15 13.2172C15 11.3697 16.4227 9.85449 18.2323 9.70729C18.6064 8.20216 19.966 7.08692 21.5868 7.08692C22.0528 7.08692 22.498 7.17942 22.9045 7.34714ZM31.9064 16.0868L32.1148 16.0629C32.9071 15.9724 33.6223 15.6283 34.1774 15.1138C33.5556 15.6901 32.7327 16.0526 31.8258 16.0845L31.7607 16.0868H31.9064ZM30.333 8.65209C30.1601 7.69249 29.6122 6.86325 28.8466 6.32133C29.7101 6.93258 30.2966 7.90936 30.3806 9.02635C30.4968 8.9815 30.6158 8.94243 30.7374 8.90947L30.396 9.00185L30.333 8.65209ZM21.5868 7.73908C20.1976 7.73908 19.0439 8.74945 18.8213 10.0757L18.776 10.346L18.5019 10.3478C18.5085 10.3478 18.5151 10.3477 18.5217 10.3477C18.6116 10.3477 18.7006 10.3519 18.7884 10.36C18.8829 8.89665 20.0997 7.73908 21.5868 7.73908ZM23.2342 8.27373L23.3477 8.39124L23.4167 8.8096L23.2825 8.45744L23.2342 8.27373Z" fill="#2F374A"/>
<path fill-rule="evenodd" clip-rule="evenodd" d="M22.3176 0H2.23187C0.99325 0 0.00012207 1.0235 0.00012207 2.3V16.1C0.00012207 17.365 0.99325 18.4 2.23187 18.4H10.043V20.7H7.81124V23H16.7382V20.7H14.5065V18.4H16.7382V17.0337C16.1608 16.811 15.6306 16.4934 15.1666 16.1H2.23187V2.3H22.3176V5.27643C22.9096 4.73641 23.6804 4.34157 24.5493 4.16108V2.3C24.5493 1.0235 23.5451 0 22.3176 0Z" fill="#2F374A"/>
</svg>
