<svg width="257" height="79" viewBox="0 0 257 79" fill="none" xmlns="http://www.w3.org/2000/svg">
<g filter="url(#filter0_d)">
<rect x="10" y="9" width="58.5008" height="58.5008" rx="11" fill="white"/>
</g>
<path d="M42.2541 27.0151L42.1385 27.0888V27.2258V28.8977V29.3537L42.523 29.1084L47.5098 25.9272V54.5532H37.2133V52.3833V52.1333H36.9633H35.5542H35.3042V52.3833V56.2125V56.4625H35.5542H49.1691H49.4191V56.2125V22.9004V22.4443L49.0346 22.6896L42.2541 27.0151Z" fill="#F9C72C" stroke="#F8C62C" stroke-width="0.5"/>
<path d="M31.164 26.397L31.0485 26.4708V26.6078V34.3007V34.7567L31.4329 34.5114L32.842 33.6125L32.9575 33.5388V33.4017V27.5785V27.5177L40.7297 22.5575V27.5785V28.1247V28.5807L41.1142 28.3355L42.5235 27.4366L42.639 27.3628V27.2258V19.5306V19.0745L42.2546 19.3199L31.164 26.397Z" fill="#F9C72C" stroke="#F8C62C" stroke-width="0.5"/>
<mask id="path-4-outside-1" maskUnits="userSpaceOnUse" x="28" y="26.2258" width="15" height="27" fill="black">
<rect fill="white" x="28" y="26.2258" width="15" height="27"/>
<path fill-rule="evenodd" clip-rule="evenodd" d="M40.9791 50.974H30.4087V36.5395L40.9791 29.7967V50.974ZM29 35.7668V52.3832H42.389V27.2258L29 35.7668Z"/>
</mask>
<path fill-rule="evenodd" clip-rule="evenodd" d="M40.9791 50.974H30.4087V36.5395L40.9791 29.7967V50.974ZM29 35.7668V52.3832H42.389V27.2258L29 35.7668Z" fill="#2F374A"/>
<path d="M40.9791 50.974V51.474H41.4791V50.974H40.9791ZM30.4087 50.974H29.9087V51.474H30.4087V50.974ZM30.4087 36.5395L30.1398 36.118L29.9087 36.2654V36.5395H30.4087ZM40.9791 29.7967H41.4791V28.8846L40.7102 29.3751L40.9791 29.7967ZM29 35.7668L28.7311 35.3453L28.5 35.4927V35.7668H29ZM29 52.3832H28.5V52.8832H29V52.3832ZM42.389 52.3832V52.8832H42.889V52.3832H42.389ZM42.389 27.2258H42.889V26.3137L42.1201 26.8042L42.389 27.2258ZM40.9791 50.474H30.4087V51.474H40.9791V50.474ZM30.9087 50.974V36.5395H29.9087V50.974H30.9087ZM30.6776 36.9611L41.248 30.2182L40.7102 29.3751L30.1398 36.118L30.6776 36.9611ZM40.4791 29.7967V50.974H41.4791V29.7967H40.4791ZM28.5 35.7668V52.3832H29.5V35.7668H28.5ZM29 52.8832H42.389V51.8832H29V52.8832ZM42.889 52.3832V27.2258H41.889V52.3832H42.889ZM42.1201 26.8042L28.7311 35.3453L29.2689 36.1883L42.6579 27.6473L42.1201 26.8042Z" fill="white" mask="url(#path-4-outside-1)"/>
<path d="M97.4768 30.7129V15.8356H102.576C104.258 15.8356 105.539 16.1728 106.418 16.8472C107.296 17.5215 107.736 18.5263 107.736 19.8615C107.736 20.5427 107.552 21.1557 107.184 21.7007C106.816 22.2457 106.278 22.668 105.569 22.9677C106.373 23.1857 106.993 23.5978 107.429 24.2041C107.872 24.8036 108.093 25.5256 108.093 26.3703C108.093 27.7668 107.644 28.8397 106.745 29.589C105.852 30.3383 104.571 30.7129 102.903 30.7129H97.4768ZM100.062 23.9997V28.6489H102.933C103.744 28.6489 104.377 28.448 104.834 28.0461C105.29 27.6441 105.518 27.0856 105.518 26.3703C105.518 24.824 104.728 24.0338 103.148 23.9997H100.062ZM100.062 22.0992H102.596C103.4 22.0992 104.027 21.9187 104.476 21.5576C104.933 21.1898 105.161 20.6721 105.161 20.0045C105.161 19.2688 104.95 18.7375 104.527 18.4105C104.112 18.0835 103.461 17.92 102.576 17.92H100.062V22.0992Z" fill="white"/>
<path d="M113.407 30.7129H110.832V15.8356H113.407V30.7129Z" fill="white"/>
<path d="M119.936 15.8356L124.227 27.2388L128.509 15.8356H131.85V30.7129H129.275V25.8083L129.531 19.2484L125.137 30.7129H123.287L118.904 19.2586L119.159 25.8083V30.7129H116.584V15.8356H119.936Z" fill="white"/>
<path d="M134.915 30.7129V15.8356H139.309C140.624 15.8356 141.789 16.1285 142.804 16.7143C143.826 17.3001 144.616 18.1312 145.174 19.2075C145.733 20.2838 146.012 21.5168 146.012 22.9064V23.6523C146.012 25.0624 145.73 26.3022 145.164 27.3717C144.606 28.4412 143.805 29.2654 142.763 29.8444C141.727 30.4234 140.539 30.7129 139.197 30.7129H134.915ZM137.501 17.92V28.6489H139.187C140.542 28.6489 141.581 28.2266 142.303 27.3819C143.032 26.5304 143.403 25.311 143.417 23.7239V22.8962C143.417 21.2818 143.066 20.0488 142.364 19.1973C141.663 18.3458 140.644 17.92 139.309 17.92H137.501Z" fill="white"/>
<path d="M154.953 30.7129C154.844 30.5018 154.749 30.1578 154.667 29.6809C153.877 30.5052 152.909 30.9173 151.765 30.9173C150.655 30.9173 149.749 30.6006 149.047 29.967C148.345 29.3335 147.994 28.5501 147.994 27.6169C147.994 26.4384 148.43 25.5358 149.302 24.9091C150.181 24.2756 151.435 23.9589 153.063 23.9589H154.585V23.2334C154.585 22.6612 154.425 22.2048 154.105 21.8642C153.785 21.5168 153.298 21.3431 152.644 21.3431C152.078 21.3431 151.615 21.4861 151.254 21.7722C150.893 22.0515 150.712 22.4091 150.712 22.8451H148.23C148.23 22.2388 148.43 21.6734 148.832 21.1489C149.234 20.6176 149.779 20.2021 150.467 19.9023C151.162 19.6026 151.935 19.4527 152.787 19.4527C154.081 19.4527 155.113 19.7797 155.883 20.4337C156.653 21.0808 157.048 21.9936 157.068 23.1721V28.1585C157.068 29.153 157.208 29.9466 157.487 30.5392V30.7129H154.953ZM152.225 28.9248C152.715 28.9248 153.175 28.8056 153.604 28.5672C154.04 28.3288 154.367 28.0086 154.585 27.6067V25.5222H153.247C152.327 25.5222 151.636 25.6823 151.172 26.0025C150.709 26.3226 150.477 26.7756 150.477 27.3615C150.477 27.8383 150.634 28.2198 150.947 28.5059C151.268 28.7852 151.693 28.9248 152.225 28.9248Z" fill="white"/>
<path d="M162.78 16.9698V19.6571H164.732V21.4963H162.78V27.668C162.78 28.0903 162.862 28.3969 163.025 28.5876C163.195 28.7715 163.495 28.8635 163.924 28.8635C164.21 28.8635 164.5 28.8294 164.793 28.7613V30.6823C164.227 30.839 163.683 30.9173 163.158 30.9173C161.251 30.9173 160.297 29.8649 160.297 27.76V21.4963H158.478V19.6571H160.297V16.9698H162.78Z" fill="white"/>
<path d="M173.243 30.7129C173.134 30.5018 173.039 30.1578 172.957 29.6809C172.167 30.5052 171.2 30.9173 170.055 30.9173C168.945 30.9173 168.039 30.6006 167.337 29.967C166.635 29.3335 166.285 28.5501 166.285 27.6169C166.285 26.4384 166.721 25.5358 167.593 24.9091C168.471 24.2756 169.725 23.9589 171.353 23.9589H172.875V23.2334C172.875 22.6612 172.715 22.2048 172.395 21.8642C172.075 21.5168 171.588 21.3431 170.934 21.3431C170.368 21.3431 169.905 21.4861 169.544 21.7722C169.183 22.0515 169.003 22.4091 169.003 22.8451H166.52C166.52 22.2388 166.721 21.6734 167.123 21.1489C167.524 20.6176 168.069 20.2021 168.757 19.9023C169.452 19.6026 170.225 19.4527 171.077 19.4527C172.371 19.4527 173.403 19.7797 174.173 20.4337C174.943 21.0808 175.338 21.9936 175.358 23.1721V28.1585C175.358 29.153 175.498 29.9466 175.777 30.5392V30.7129H173.243ZM170.515 28.9248C171.005 28.9248 171.465 28.8056 171.894 28.5672C172.33 28.3288 172.657 28.0086 172.875 27.6067V25.5222H171.537C170.617 25.5222 169.926 25.6823 169.462 26.0025C168.999 26.3226 168.768 26.7756 168.768 27.3615C168.768 27.8383 168.924 28.2198 169.238 28.5059C169.558 28.7852 169.984 28.9248 170.515 28.9248Z" fill="white"/>
<path d="M102.555 52.496V60.3587H97.9571V38.0426H106.663C108.339 38.0426 109.81 38.3492 111.077 38.9623C112.354 39.5753 113.335 40.449 114.02 41.5832C114.704 42.7072 115.047 43.9895 115.047 45.4302C115.047 47.6169 114.296 49.3437 112.794 50.6108C111.302 51.8676 109.233 52.496 106.586 52.496H102.555ZM102.555 48.7715H106.663C107.879 48.7715 108.803 48.4854 109.437 47.9132C110.081 47.341 110.403 46.5236 110.403 45.4609C110.403 44.3676 110.081 43.4837 109.437 42.8093C108.793 42.1349 107.904 41.7875 106.77 41.7671H102.555V48.7715Z" fill="white"/>
<path d="M122.817 56.6649H132.581V60.3587H118.219V38.0426H122.817V56.6649Z" fill="white"/>
<path d="M148.138 55.7606H140.076L138.543 60.3587H133.654L141.961 38.0426H146.222L154.575 60.3587H149.686L148.138 55.7606ZM141.317 52.0362H146.896L144.091 43.683L141.317 52.0362Z" fill="white"/>
<path d="M171.618 41.7671H164.783V60.3587H160.185V41.7671H153.441V38.0426H171.618V41.7671Z" fill="white"/>
<path d="M187.681 51.2392H178.853V60.3587H174.255V38.0426H188.785V41.7671H178.853V47.53H187.681V51.2392Z" fill="white"/>
<path d="M209.783 49.7065C209.783 51.9033 209.394 53.8294 208.618 55.4847C207.841 57.1401 206.727 58.4173 205.276 59.3165C203.836 60.2157 202.18 60.6653 200.311 60.6653C198.461 60.6653 196.811 60.2208 195.36 59.3318C193.909 58.4428 192.785 57.1758 191.988 55.5307C191.191 53.8754 190.787 51.9749 190.777 49.8291V48.7255C190.777 46.5287 191.171 44.5975 191.957 42.932C192.754 41.2562 193.873 39.9738 195.314 39.0849C196.765 38.1857 198.42 37.7361 200.28 37.7361C202.14 37.7361 203.79 38.1857 205.231 39.0849C206.681 39.9738 207.8 41.2562 208.587 42.932C209.384 44.5975 209.783 46.5236 209.783 48.7102V49.7065ZM205.123 48.6949C205.123 46.355 204.704 44.577 203.866 43.3611C203.029 42.1452 201.833 41.5372 200.28 41.5372C198.737 41.5372 197.547 42.1401 196.709 43.3458C195.871 44.5413 195.447 46.2988 195.437 48.6183V49.7065C195.437 51.9851 195.856 53.7528 196.693 55.0096C197.531 56.2664 198.737 56.8948 200.311 56.8948C201.853 56.8948 203.039 56.292 203.866 55.0862C204.694 53.8703 205.113 52.1026 205.123 49.7831V48.6949Z" fill="white"/>
<path d="M221.385 52.1894H217.722V60.3587H213.124V38.0426H221.416C224.052 38.0426 226.085 38.6302 227.516 39.8053C228.946 40.9803 229.662 42.6407 229.662 44.7865C229.662 46.309 229.33 47.5811 228.665 48.6029C228.012 49.6145 227.015 50.4217 225.677 51.0246L230.505 60.1441V60.3587H225.569L221.385 52.1894ZM217.722 48.465H221.431C222.586 48.465 223.48 48.1738 224.113 47.5914C224.747 46.9987 225.064 46.1864 225.064 45.1544C225.064 44.1019 224.762 43.2743 224.159 42.6714C223.567 42.0685 222.652 41.7671 221.416 41.7671H217.722V48.465Z" fill="white"/>
<path d="M239.18 38.0426L244.912 54.2279L250.614 38.0426H256.652V60.3587H252.039V54.2586L252.499 43.729L246.475 60.3587H243.318L237.31 43.7443L237.77 54.2586V60.3587H233.172V38.0426H239.18Z" fill="white"/>
<circle cx="183.051" cy="27.7161" r="2.99727" fill="#F9C72C"/>
<rect x="80.0521" y="15.8702" width="1.74387" height="44.2674" fill="white"/>
<defs>
<filter id="filter0_d" x="0" y="0" width="78.5008" height="78.5008" filterUnits="userSpaceOnUse" color-interpolation-filters="sRGB">
<feFlood flood-opacity="0" result="BackgroundImageFix"/>
<feColorMatrix in="SourceAlpha" type="matrix" values="0 0 0 0 0 0 0 0 0 0 0 0 0 0 0 0 0 0 127 0"/>
<feOffset dy="1"/>
<feGaussianBlur stdDeviation="5"/>
<feColorMatrix type="matrix" values="0 0 0 0 0 0 0 0 0 0 0 0 0 0 0 0 0 0 0.1 0"/>
<feBlend mode="normal" in2="BackgroundImageFix" result="effect1_dropShadow"/>
<feBlend mode="normal" in="SourceGraphic" in2="effect1_dropShadow" result="shape"/>
</filter>
</defs>
</svg>
